<?xml version="1.0" encoding="utf-8" standalone="no"?>
<!DOCTYPE svg PUBLIC "-//W3C//DTD SVG 1.1//EN"
  "http://www.w3.org/Graphics/SVG/1.1/DTD/svg11.dtd">
<!-- Created with matplotlib (https://matplotlib.org/) -->
<svg height="345.6pt" version="1.1" viewBox="0 0 460.8 345.6" width="460.8pt" xmlns="http://www.w3.org/2000/svg" xmlns:xlink="http://www.w3.org/1999/xlink">
 <defs>
  <style type="text/css">
*{stroke-linecap:butt;stroke-linejoin:round;}
  </style>
 </defs>
 <g id="figure_1">
  <g id="patch_1">
   <path d="M 0 345.6 
L 460.8 345.6 
L 460.8 0 
L 0 0 
z
" style="fill:#ffffff;"/>
  </g>
  <g id="axes_1">
   <g id="patch_2">
    <path d="M 57.6 307.584 
L 414.72 307.584 
L 414.72 41.472 
L 57.6 41.472 
z
" style="fill:#eaeaf2;"/>
   </g>
   <g id="matplotlib.axis_1">
    <g id="xtick_1">
     <g id="line2d_1">
      <path clip-path="url(#pcbcaa68dc7)" d="M 57.6 307.584 
L 57.6 41.472 
" style="fill:none;stroke:#ffffff;stroke-linecap:round;"/>
     </g>
     <g id="text_1">
      <!-- 0 -->
      <defs>
       <path d="M 31.78125 66.40625 
Q 24.171875 66.40625 20.328125 58.90625 
Q 16.5 51.421875 16.5 36.375 
Q 16.5 21.390625 20.328125 13.890625 
Q 24.171875 6.390625 31.78125 6.390625 
Q 39.453125 6.390625 43.28125 13.890625 
Q 47.125 21.390625 47.125 36.375 
Q 47.125 51.421875 43.28125 58.90625 
Q 39.453125 66.40625 31.78125 66.40625 
z
M 31.78125 74.21875 
Q 44.046875 74.21875 50.515625 64.515625 
Q 56.984375 54.828125 56.984375 36.375 
Q 56.984375 17.96875 50.515625 8.265625 
Q 44.046875 -1.421875 31.78125 -1.421875 
Q 19.53125 -1.421875 13.0625 8.265625 
Q 6.59375 17.96875 6.59375 36.375 
Q 6.59375 54.828125 13.0625 64.515625 
Q 19.53125 74.21875 31.78125 74.21875 
z
" id="DejaVuSans-48"/>
      </defs>
      <g style="fill:#262626;" transform="translate(54.100625 325.442281)scale(0.11 -0.11)">
       <use xlink:href="#DejaVuSans-48"/>
      </g>
     </g>
    </g>
    <g id="xtick_2">
     <g id="line2d_2">
      <path clip-path="url(#pcbcaa68dc7)" d="M 117.319064 307.584 
L 117.319064 41.472 
" style="fill:none;stroke:#ffffff;stroke-linecap:round;"/>
     </g>
     <g id="text_2">
      <!-- 50 -->
      <defs>
       <path d="M 10.796875 72.90625 
L 49.515625 72.90625 
L 49.515625 64.59375 
L 19.828125 64.59375 
L 19.828125 46.734375 
Q 21.96875 47.46875 24.109375 47.828125 
Q 26.265625 48.1875 28.421875 48.1875 
Q 40.625 48.1875 47.75 41.5 
Q 54.890625 34.8125 54.890625 23.390625 
Q 54.890625 11.625 47.5625 5.09375 
Q 40.234375 -1.421875 26.90625 -1.421875 
Q 22.3125 -1.421875 17.546875 -0.640625 
Q 12.796875 0.140625 7.71875 1.703125 
L 7.71875 11.625 
Q 12.109375 9.234375 16.796875 8.0625 
Q 21.484375 6.890625 26.703125 6.890625 
Q 35.15625 6.890625 40.078125 11.328125 
Q 45.015625 15.765625 45.015625 23.390625 
Q 45.015625 31 40.078125 35.4375 
Q 35.15625 39.890625 26.703125 39.890625 
Q 22.75 39.890625 18.8125 39.015625 
Q 14.890625 38.140625 10.796875 36.28125 
z
" id="DejaVuSans-53"/>
      </defs>
      <g style="fill:#262626;" transform="translate(110.320314 325.442281)scale(0.11 -0.11)">
       <use xlink:href="#DejaVuSans-53"/>
       <use x="63.623047" xlink:href="#DejaVuSans-48"/>
      </g>
     </g>
    </g>
    <g id="xtick_3">
     <g id="line2d_3">
      <path clip-path="url(#pcbcaa68dc7)" d="M 177.038127 307.584 
L 177.038127 41.472 
" style="fill:none;stroke:#ffffff;stroke-linecap:round;"/>
     </g>
     <g id="text_3">
      <!-- 100 -->
      <defs>
       <path d="M 12.40625 8.296875 
L 28.515625 8.296875 
L 28.515625 63.921875 
L 10.984375 60.40625 
L 10.984375 69.390625 
L 28.421875 72.90625 
L 38.28125 72.90625 
L 38.28125 8.296875 
L 54.390625 8.296875 
L 54.390625 0 
L 12.40625 0 
z
" id="DejaVuSans-49"/>
      </defs>
      <g style="fill:#262626;" transform="translate(166.540002 325.442281)scale(0.11 -0.11)">
       <use xlink:href="#DejaVuSans-49"/>
       <use x="63.623047" xlink:href="#DejaVuSans-48"/>
       <use x="127.246094" xlink:href="#DejaVuSans-48"/>
      </g>
     </g>
    </g>
    <g id="xtick_4">
     <g id="line2d_4">
      <path clip-path="url(#pcbcaa68dc7)" d="M 236.757191 307.584 
L 236.757191 41.472 
" style="fill:none;stroke:#ffffff;stroke-linecap:round;"/>
     </g>
     <g id="text_4">
      <!-- 150 -->
      <g style="fill:#262626;" transform="translate(226.259066 325.442281)scale(0.11 -0.11)">
       <use xlink:href="#DejaVuSans-49"/>
       <use x="63.623047" xlink:href="#DejaVuSans-53"/>
       <use x="127.246094" xlink:href="#DejaVuSans-48"/>
      </g>
     </g>
    </g>
    <g id="xtick_5">
     <g id="line2d_5">
      <path clip-path="url(#pcbcaa68dc7)" d="M 296.476254 307.584 
L 296.476254 41.472 
" style="fill:none;stroke:#ffffff;stroke-linecap:round;"/>
     </g>
     <g id="text_5">
      <!-- 200 -->
      <defs>
       <path d="M 19.1875 8.296875 
L 53.609375 8.296875 
L 53.609375 0 
L 7.328125 0 
L 7.328125 8.296875 
Q 12.9375 14.109375 22.625 23.890625 
Q 32.328125 33.6875 34.8125 36.53125 
Q 39.546875 41.84375 41.421875 45.53125 
Q 43.3125 49.21875 43.3125 52.78125 
Q 43.3125 58.59375 39.234375 62.25 
Q 35.15625 65.921875 28.609375 65.921875 
Q 23.96875 65.921875 18.8125 64.3125 
Q 13.671875 62.703125 7.8125 59.421875 
L 7.8125 69.390625 
Q 13.765625 71.78125 18.9375 73 
Q 24.125 74.21875 28.421875 74.21875 
Q 39.75 74.21875 46.484375 68.546875 
Q 53.21875 62.890625 53.21875 53.421875 
Q 53.21875 48.921875 51.53125 44.890625 
Q 49.859375 40.875 45.40625 35.40625 
Q 44.1875 33.984375 37.640625 27.21875 
Q 31.109375 20.453125 19.1875 8.296875 
z
" id="DejaVuSans-50"/>
      </defs>
      <g style="fill:#262626;" transform="translate(285.978129 325.442281)scale(0.11 -0.11)">
       <use xlink:href="#DejaVuSans-50"/>
       <use x="63.623047" xlink:href="#DejaVuSans-48"/>
       <use x="127.246094" xlink:href="#DejaVuSans-48"/>
      </g>
     </g>
    </g>
    <g id="xtick_6">
     <g id="line2d_6">
      <path clip-path="url(#pcbcaa68dc7)" d="M 356.195318 307.584 
L 356.195318 41.472 
" style="fill:none;stroke:#ffffff;stroke-linecap:round;"/>
     </g>
     <g id="text_6">
      <!-- 250 -->
      <g style="fill:#262626;" transform="translate(345.697193 325.442281)scale(0.11 -0.11)">
       <use xlink:href="#DejaVuSans-50"/>
       <use x="63.623047" xlink:href="#DejaVuSans-53"/>
       <use x="127.246094" xlink:href="#DejaVuSans-48"/>
      </g>
     </g>
    </g>
    <g id="text_7">
     <!-- day -->
     <defs>
      <path d="M 45.40625 46.390625 
L 45.40625 75.984375 
L 54.390625 75.984375 
L 54.390625 0 
L 45.40625 0 
L 45.40625 8.203125 
Q 42.578125 3.328125 38.25 0.953125 
Q 33.9375 -1.421875 27.875 -1.421875 
Q 17.96875 -1.421875 11.734375 6.484375 
Q 5.515625 14.40625 5.515625 27.296875 
Q 5.515625 40.1875 11.734375 48.09375 
Q 17.96875 56 27.875 56 
Q 33.9375 56 38.25 53.625 
Q 42.578125 51.265625 45.40625 46.390625 
z
M 14.796875 27.296875 
Q 14.796875 17.390625 18.875 11.75 
Q 22.953125 6.109375 30.078125 6.109375 
Q 37.203125 6.109375 41.296875 11.75 
Q 45.40625 17.390625 45.40625 27.296875 
Q 45.40625 37.203125 41.296875 42.84375 
Q 37.203125 48.484375 30.078125 48.484375 
Q 22.953125 48.484375 18.875 42.84375 
Q 14.796875 37.203125 14.796875 27.296875 
z
" id="DejaVuSans-100"/>
      <path d="M 34.28125 27.484375 
Q 23.390625 27.484375 19.1875 25 
Q 14.984375 22.515625 14.984375 16.5 
Q 14.984375 11.71875 18.140625 8.90625 
Q 21.296875 6.109375 26.703125 6.109375 
Q 34.1875 6.109375 38.703125 11.40625 
Q 43.21875 16.703125 43.21875 25.484375 
L 43.21875 27.484375 
z
M 52.203125 31.203125 
L 52.203125 0 
L 43.21875 0 
L 43.21875 8.296875 
Q 40.140625 3.328125 35.546875 0.953125 
Q 30.953125 -1.421875 24.3125 -1.421875 
Q 15.921875 -1.421875 10.953125 3.296875 
Q 6 8.015625 6 15.921875 
Q 6 25.140625 12.171875 29.828125 
Q 18.359375 34.515625 30.609375 34.515625 
L 43.21875 34.515625 
L 43.21875 35.40625 
Q 43.21875 41.609375 39.140625 45 
Q 35.0625 48.390625 27.6875 48.390625 
Q 23 48.390625 18.546875 47.265625 
Q 14.109375 46.140625 10.015625 43.890625 
L 10.015625 52.203125 
Q 14.9375 54.109375 19.578125 55.046875 
Q 24.21875 56 28.609375 56 
Q 40.484375 56 46.34375 49.84375 
Q 52.203125 43.703125 52.203125 31.203125 
z
" id="DejaVuSans-97"/>
      <path d="M 32.171875 -5.078125 
Q 28.375 -14.84375 24.75 -17.8125 
Q 21.140625 -20.796875 15.09375 -20.796875 
L 7.90625 -20.796875 
L 7.90625 -13.28125 
L 13.1875 -13.28125 
Q 16.890625 -13.28125 18.9375 -11.515625 
Q 21 -9.765625 23.484375 -3.21875 
L 25.09375 0.875 
L 2.984375 54.6875 
L 12.5 54.6875 
L 29.59375 11.921875 
L 46.6875 54.6875 
L 56.203125 54.6875 
z
" id="DejaVuSans-121"/>
     </defs>
     <g style="fill:#262626;" transform="translate(225.122813 340.848062)scale(0.12 -0.12)">
      <use xlink:href="#DejaVuSans-100"/>
      <use x="63.476562" xlink:href="#DejaVuSans-97"/>
      <use x="124.755859" xlink:href="#DejaVuSans-121"/>
     </g>
    </g>
   </g>
   <g id="matplotlib.axis_2">
    <g id="ytick_1">
     <g id="line2d_7">
      <path clip-path="url(#pcbcaa68dc7)" d="M 57.6 299.732211 
L 414.72 299.732211 
" style="fill:none;stroke:#ffffff;stroke-linecap:round;"/>
     </g>
     <g id="text_8">
      <!-- 0 -->
      <g style="fill:#262626;" transform="translate(41.10125 303.911351)scale(0.11 -0.11)">
       <use xlink:href="#DejaVuSans-48"/>
      </g>
     </g>
    </g>
    <g id="ytick_2">
     <g id="line2d_8">
      <path clip-path="url(#pcbcaa68dc7)" d="M 57.6 257.290105 
L 414.72 257.290105 
" style="fill:none;stroke:#ffffff;stroke-linecap:round;"/>
     </g>
     <g id="text_9">
      <!-- 10 -->
      <g style="fill:#262626;" transform="translate(34.1025 261.469246)scale(0.11 -0.11)">
       <use xlink:href="#DejaVuSans-49"/>
       <use x="63.623047" xlink:href="#DejaVuSans-48"/>
      </g>
     </g>
    </g>
    <g id="ytick_3">
     <g id="line2d_9">
      <path clip-path="url(#pcbcaa68dc7)" d="M 57.6 214.848 
L 414.72 214.848 
" style="fill:none;stroke:#ffffff;stroke-linecap:round;"/>
     </g>
     <g id="text_10">
      <!-- 20 -->
      <g style="fill:#262626;" transform="translate(34.1025 219.027141)scale(0.11 -0.11)">
       <use xlink:href="#DejaVuSans-50"/>
       <use x="63.623047" xlink:href="#DejaVuSans-48"/>
      </g>
     </g>
    </g>
    <g id="ytick_4">
     <g id="line2d_10">
      <path clip-path="url(#pcbcaa68dc7)" d="M 57.6 172.405895 
L 414.72 172.405895 
" style="fill:none;stroke:#ffffff;stroke-linecap:round;"/>
     </g>
     <g id="text_11">
      <!-- 30 -->
      <defs>
       <path d="M 40.578125 39.3125 
Q 47.65625 37.796875 51.625 33 
Q 55.609375 28.21875 55.609375 21.1875 
Q 55.609375 10.40625 48.1875 4.484375 
Q 40.765625 -1.421875 27.09375 -1.421875 
Q 22.515625 -1.421875 17.65625 -0.515625 
Q 12.796875 0.390625 7.625 2.203125 
L 7.625 11.71875 
Q 11.71875 9.328125 16.59375 8.109375 
Q 21.484375 6.890625 26.8125 6.890625 
Q 36.078125 6.890625 40.9375 10.546875 
Q 45.796875 14.203125 45.796875 21.1875 
Q 45.796875 27.640625 41.28125 31.265625 
Q 36.765625 34.90625 28.71875 34.90625 
L 20.21875 34.90625 
L 20.21875 43.015625 
L 29.109375 43.015625 
Q 36.375 43.015625 40.234375 45.921875 
Q 44.09375 48.828125 44.09375 54.296875 
Q 44.09375 59.90625 40.109375 62.90625 
Q 36.140625 65.921875 28.71875 65.921875 
Q 24.65625 65.921875 20.015625 65.03125 
Q 15.375 64.15625 9.8125 62.3125 
L 9.8125 71.09375 
Q 15.4375 72.65625 20.34375 73.4375 
Q 25.25 74.21875 29.59375 74.21875 
Q 40.828125 74.21875 47.359375 69.109375 
Q 53.90625 64.015625 53.90625 55.328125 
Q 53.90625 49.265625 50.4375 45.09375 
Q 46.96875 40.921875 40.578125 39.3125 
z
" id="DejaVuSans-51"/>
      </defs>
      <g style="fill:#262626;" transform="translate(34.1025 176.585035)scale(0.11 -0.11)">
       <use xlink:href="#DejaVuSans-51"/>
       <use x="63.623047" xlink:href="#DejaVuSans-48"/>
      </g>
     </g>
    </g>
    <g id="ytick_5">
     <g id="line2d_11">
      <path clip-path="url(#pcbcaa68dc7)" d="M 57.6 129.963789 
L 414.72 129.963789 
" style="fill:none;stroke:#ffffff;stroke-linecap:round;"/>
     </g>
     <g id="text_12">
      <!-- 40 -->
      <defs>
       <path d="M 37.796875 64.3125 
L 12.890625 25.390625 
L 37.796875 25.390625 
z
M 35.203125 72.90625 
L 47.609375 72.90625 
L 47.609375 25.390625 
L 58.015625 25.390625 
L 58.015625 17.1875 
L 47.609375 17.1875 
L 47.609375 0 
L 37.796875 0 
L 37.796875 17.1875 
L 4.890625 17.1875 
L 4.890625 26.703125 
z
" id="DejaVuSans-52"/>
      </defs>
      <g style="fill:#262626;" transform="translate(34.1025 134.14293)scale(0.11 -0.11)">
       <use xlink:href="#DejaVuSans-52"/>
       <use x="63.623047" xlink:href="#DejaVuSans-48"/>
      </g>
     </g>
    </g>
    <g id="ytick_6">
     <g id="line2d_12">
      <path clip-path="url(#pcbcaa68dc7)" d="M 57.6 87.521684 
L 414.72 87.521684 
" style="fill:none;stroke:#ffffff;stroke-linecap:round;"/>
     </g>
     <g id="text_13">
      <!-- 50 -->
      <g style="fill:#262626;" transform="translate(34.1025 91.700825)scale(0.11 -0.11)">
       <use xlink:href="#DejaVuSans-53"/>
       <use x="63.623047" xlink:href="#DejaVuSans-48"/>
      </g>
     </g>
    </g>
    <g id="ytick_7">
     <g id="line2d_13">
      <path clip-path="url(#pcbcaa68dc7)" d="M 57.6 45.079579 
L 414.72 45.079579 
" style="fill:none;stroke:#ffffff;stroke-linecap:round;"/>
     </g>
     <g id="text_14">
      <!-- 60 -->
      <defs>
       <path d="M 33.015625 40.375 
Q 26.375 40.375 22.484375 35.828125 
Q 18.609375 31.296875 18.609375 23.390625 
Q 18.609375 15.53125 22.484375 10.953125 
Q 26.375 6.390625 33.015625 6.390625 
Q 39.65625 6.390625 43.53125 10.953125 
Q 47.40625 15.53125 47.40625 23.390625 
Q 47.40625 31.296875 43.53125 35.828125 
Q 39.65625 40.375 33.015625 40.375 
z
M 52.59375 71.296875 
L 52.59375 62.3125 
Q 48.875 64.0625 45.09375 64.984375 
Q 41.3125 65.921875 37.59375 65.921875 
Q 27.828125 65.921875 22.671875 59.328125 
Q 17.53125 52.734375 16.796875 39.40625 
Q 19.671875 43.65625 24.015625 45.921875 
Q 28.375 48.1875 33.59375 48.1875 
Q 44.578125 48.1875 50.953125 41.515625 
Q 57.328125 34.859375 57.328125 23.390625 
Q 57.328125 12.15625 50.6875 5.359375 
Q 44.046875 -1.421875 33.015625 -1.421875 
Q 20.359375 -1.421875 13.671875 8.265625 
Q 6.984375 17.96875 6.984375 36.375 
Q 6.984375 53.65625 15.1875 63.9375 
Q 23.390625 74.21875 37.203125 74.21875 
Q 40.921875 74.21875 44.703125 73.484375 
Q 48.484375 72.75 52.59375 71.296875 
z
" id="DejaVuSans-54"/>
      </defs>
      <g style="fill:#262626;" transform="translate(34.1025 49.25872)scale(0.11 -0.11)">
       <use xlink:href="#DejaVuSans-54"/>
       <use x="63.623047" xlink:href="#DejaVuSans-48"/>
      </g>
     </g>
    </g>
    <g id="text_15">
     <!-- Transactions -->
     <defs>
      <path d="M -0.296875 72.90625 
L 61.375 72.90625 
L 61.375 64.59375 
L 35.5 64.59375 
L 35.5 0 
L 25.59375 0 
L 25.59375 64.59375 
L -0.296875 64.59375 
z
" id="DejaVuSans-84"/>
      <path d="M 41.109375 46.296875 
Q 39.59375 47.171875 37.8125 47.578125 
Q 36.03125 48 33.890625 48 
Q 26.265625 48 22.1875 43.046875 
Q 18.109375 38.09375 18.109375 28.8125 
L 18.109375 0 
L 9.078125 0 
L 9.078125 54.6875 
L 18.109375 54.6875 
L 18.109375 46.1875 
Q 20.953125 51.171875 25.484375 53.578125 
Q 30.03125 56 36.53125 56 
Q 37.453125 56 38.578125 55.875 
Q 39.703125 55.765625 41.0625 55.515625 
z
" id="DejaVuSans-114"/>
      <path d="M 54.890625 33.015625 
L 54.890625 0 
L 45.90625 0 
L 45.90625 32.71875 
Q 45.90625 40.484375 42.875 44.328125 
Q 39.84375 48.1875 33.796875 48.1875 
Q 26.515625 48.1875 22.3125 43.546875 
Q 18.109375 38.921875 18.109375 30.90625 
L 18.109375 0 
L 9.078125 0 
L 9.078125 54.6875 
L 18.109375 54.6875 
L 18.109375 46.1875 
Q 21.34375 51.125 25.703125 53.5625 
Q 30.078125 56 35.796875 56 
Q 45.21875 56 50.046875 50.171875 
Q 54.890625 44.34375 54.890625 33.015625 
z
" id="DejaVuSans-110"/>
      <path d="M 44.28125 53.078125 
L 44.28125 44.578125 
Q 40.484375 46.53125 36.375 47.5 
Q 32.28125 48.484375 27.875 48.484375 
Q 21.1875 48.484375 17.84375 46.4375 
Q 14.5 44.390625 14.5 40.28125 
Q 14.5 37.15625 16.890625 35.375 
Q 19.28125 33.59375 26.515625 31.984375 
L 29.59375 31.296875 
Q 39.15625 29.25 43.1875 25.515625 
Q 47.21875 21.78125 47.21875 15.09375 
Q 47.21875 7.46875 41.1875 3.015625 
Q 35.15625 -1.421875 24.609375 -1.421875 
Q 20.21875 -1.421875 15.453125 -0.5625 
Q 10.6875 0.296875 5.421875 2 
L 5.421875 11.28125 
Q 10.40625 8.6875 15.234375 7.390625 
Q 20.0625 6.109375 24.8125 6.109375 
Q 31.15625 6.109375 34.5625 8.28125 
Q 37.984375 10.453125 37.984375 14.40625 
Q 37.984375 18.0625 35.515625 20.015625 
Q 33.0625 21.96875 24.703125 23.78125 
L 21.578125 24.515625 
Q 13.234375 26.265625 9.515625 29.90625 
Q 5.8125 33.546875 5.8125 39.890625 
Q 5.8125 47.609375 11.28125 51.796875 
Q 16.75 56 26.8125 56 
Q 31.78125 56 36.171875 55.265625 
Q 40.578125 54.546875 44.28125 53.078125 
z
" id="DejaVuSans-115"/>
      <path d="M 48.78125 52.59375 
L 48.78125 44.1875 
Q 44.96875 46.296875 41.140625 47.34375 
Q 37.3125 48.390625 33.40625 48.390625 
Q 24.65625 48.390625 19.8125 42.84375 
Q 14.984375 37.3125 14.984375 27.296875 
Q 14.984375 17.28125 19.8125 11.734375 
Q 24.65625 6.203125 33.40625 6.203125 
Q 37.3125 6.203125 41.140625 7.25 
Q 44.96875 8.296875 48.78125 10.40625 
L 48.78125 2.09375 
Q 45.015625 0.34375 40.984375 -0.53125 
Q 36.96875 -1.421875 32.421875 -1.421875 
Q 20.0625 -1.421875 12.78125 6.34375 
Q 5.515625 14.109375 5.515625 27.296875 
Q 5.515625 40.671875 12.859375 48.328125 
Q 20.21875 56 33.015625 56 
Q 37.15625 56 41.109375 55.140625 
Q 45.0625 54.296875 48.78125 52.59375 
z
" id="DejaVuSans-99"/>
      <path d="M 18.3125 70.21875 
L 18.3125 54.6875 
L 36.8125 54.6875 
L 36.8125 47.703125 
L 18.3125 47.703125 
L 18.3125 18.015625 
Q 18.3125 11.328125 20.140625 9.421875 
Q 21.96875 7.515625 27.59375 7.515625 
L 36.8125 7.515625 
L 36.8125 0 
L 27.59375 0 
Q 17.1875 0 13.234375 3.875 
Q 9.28125 7.765625 9.28125 18.015625 
L 9.28125 47.703125 
L 2.6875 47.703125 
L 2.6875 54.6875 
L 9.28125 54.6875 
L 9.28125 70.21875 
z
" id="DejaVuSans-116"/>
      <path d="M 9.421875 54.6875 
L 18.40625 54.6875 
L 18.40625 0 
L 9.421875 0 
z
M 9.421875 75.984375 
L 18.40625 75.984375 
L 18.40625 64.59375 
L 9.421875 64.59375 
z
" id="DejaVuSans-105"/>
      <path d="M 30.609375 48.390625 
Q 23.390625 48.390625 19.1875 42.75 
Q 14.984375 37.109375 14.984375 27.296875 
Q 14.984375 17.484375 19.15625 11.84375 
Q 23.34375 6.203125 30.609375 6.203125 
Q 37.796875 6.203125 41.984375 11.859375 
Q 46.1875 17.53125 46.1875 27.296875 
Q 46.1875 37.015625 41.984375 42.703125 
Q 37.796875 48.390625 30.609375 48.390625 
z
M 30.609375 56 
Q 42.328125 56 49.015625 48.375 
Q 55.71875 40.765625 55.71875 27.296875 
Q 55.71875 13.875 49.015625 6.21875 
Q 42.328125 -1.421875 30.609375 -1.421875 
Q 18.84375 -1.421875 12.171875 6.21875 
Q 5.515625 13.875 5.515625 27.296875 
Q 5.515625 40.765625 12.171875 48.375 
Q 18.84375 56 30.609375 56 
z
" id="DejaVuSans-111"/>
     </defs>
     <g style="fill:#262626;" transform="translate(27.606875 212.8455)rotate(-90)scale(0.12 -0.12)">
      <use xlink:href="#DejaVuSans-84"/>
      <use x="60.865234" xlink:href="#DejaVuSans-114"/>
      <use x="101.978516" xlink:href="#DejaVuSans-97"/>
      <use x="163.257812" xlink:href="#DejaVuSans-110"/>
      <use x="226.636719" xlink:href="#DejaVuSans-115"/>
      <use x="278.736328" xlink:href="#DejaVuSans-97"/>
      <use x="340.015625" xlink:href="#DejaVuSans-99"/>
      <use x="394.996094" xlink:href="#DejaVuSans-116"/>
      <use x="434.205078" xlink:href="#DejaVuSans-105"/>
      <use x="461.988281" xlink:href="#DejaVuSans-111"/>
      <use x="523.169922" xlink:href="#DejaVuSans-110"/>
      <use x="586.548828" xlink:href="#DejaVuSans-115"/>
     </g>
    </g>
   </g>
   <g id="line2d_14">
    <path clip-path="url(#pcbcaa68dc7)" d="M 58.794381 295.488 
L 59.988763 282.755368 
L 61.183144 282.755368 
L 62.377525 278.511158 
L 63.571906 265.778526 
L 64.766288 270.022737 
L 65.960669 265.778526 
L 67.15505 257.290105 
L 68.349431 261.534316 
L 69.543813 248.801684 
L 70.738194 244.557474 
L 71.932575 248.801684 
L 73.126957 227.580632 
L 74.321338 240.313263 
L 75.515719 244.557474 
L 76.7101 261.534316 
L 77.904482 248.801684 
L 79.098863 227.580632 
L 80.293244 231.824842 
L 81.487625 227.580632 
L 82.682007 253.045895 
L 83.876388 214.848 
L 85.070769 253.045895 
L 86.265151 253.045895 
L 87.459532 248.801684 
L 88.653913 227.580632 
L 89.848294 244.557474 
L 91.042676 223.336421 
L 92.237057 244.557474 
L 93.431438 206.359579 
L 94.625819 227.580632 
L 95.820201 202.115368 
L 97.014582 219.092211 
L 98.208963 210.603789 
L 99.403344 231.824842 
L 100.597726 219.092211 
L 101.792107 189.382737 
L 102.986488 193.626947 
L 104.18087 227.580632 
L 105.375251 223.336421 
L 106.569632 202.115368 
L 107.764013 219.092211 
L 108.958395 214.848 
L 110.152776 227.580632 
L 111.347157 168.161684 
L 112.541538 189.382737 
L 113.73592 206.359579 
L 114.930301 244.557474 
L 116.124682 159.673263 
L 117.319064 206.359579 
L 118.513445 168.161684 
L 119.707826 163.917474 
L 120.902207 206.359579 
L 122.096589 227.580632 
L 123.29097 189.382737 
L 124.485351 227.580632 
L 125.679732 227.580632 
L 126.874114 193.626947 
L 128.068495 223.336421 
L 129.262876 163.917474 
L 130.457258 214.848 
L 131.651639 210.603789 
L 132.84602 197.871158 
L 134.040401 206.359579 
L 135.234783 176.650105 
L 136.429164 151.184842 
L 137.623545 172.405895 
L 138.817926 197.871158 
L 141.206689 189.382737 
L 142.40107 159.673263 
L 143.595452 155.429053 
L 144.789833 176.650105 
L 145.984214 163.917474 
L 147.178595 185.138526 
L 148.372977 193.626947 
L 150.761739 185.138526 
L 151.95612 142.696421 
L 153.150502 151.184842 
L 154.344883 172.405895 
L 155.539264 189.382737 
L 156.733645 223.336421 
L 157.928027 219.092211 
L 159.122408 185.138526 
L 160.316789 185.138526 
L 161.511171 172.405895 
L 162.705552 121.475368 
L 163.899933 155.429053 
L 165.094314 142.696421 
L 166.288696 159.673263 
L 168.677458 185.138526 
L 169.871839 176.650105 
L 171.066221 193.626947 
L 173.454983 176.650105 
L 174.649365 142.696421 
L 175.843746 223.336421 
L 177.038127 219.092211 
L 178.232508 159.673263 
L 179.42689 172.405895 
L 180.621271 176.650105 
L 181.815652 193.626947 
L 183.010033 176.650105 
L 184.204415 210.603789 
L 185.398796 151.184842 
L 186.593177 168.161684 
L 187.787559 202.115368 
L 188.98194 125.719579 
L 190.176321 168.161684 
L 191.370702 151.184842 
L 192.565084 138.452211 
L 193.759465 138.452211 
L 194.953846 129.963789 
L 196.148227 180.894316 
L 197.342609 193.626947 
L 198.53699 129.963789 
L 199.731371 125.719579 
L 200.925753 125.719579 
L 202.120134 163.917474 
L 203.314515 142.696421 
L 204.508896 138.452211 
L 205.703278 146.940632 
L 206.897659 129.963789 
L 208.09204 180.894316 
L 209.286421 138.452211 
L 210.480803 129.963789 
L 211.675184 159.673263 
L 212.869565 134.208 
L 214.063946 117.231158 
L 215.258328 172.405895 
L 216.452709 151.184842 
L 217.64709 172.405895 
L 220.035853 138.452211 
L 221.230234 176.650105 
L 222.424615 121.475368 
L 223.618997 104.498526 
L 224.813378 138.452211 
L 226.007759 142.696421 
L 227.20214 163.917474 
L 228.396522 151.184842 
L 229.590903 134.208 
L 230.785284 138.452211 
L 231.979666 193.626947 
L 233.174047 176.650105 
L 234.368428 168.161684 
L 235.562809 117.231158 
L 236.757191 87.521684 
L 237.951572 117.231158 
L 239.145953 172.405895 
L 240.340334 185.138526 
L 241.534716 142.696421 
L 242.729097 151.184842 
L 243.923478 138.452211 
L 245.11786 159.673263 
L 246.312241 168.161684 
L 247.506622 189.382737 
L 248.701003 151.184842 
L 249.895385 151.184842 
L 251.089766 129.963789 
L 252.284147 155.429053 
L 253.478528 155.429053 
L 254.67291 146.940632 
L 255.867291 180.894316 
L 257.061672 202.115368 
L 259.450435 96.010105 
L 260.644816 159.673263 
L 261.839197 163.917474 
L 263.033579 125.719579 
L 264.22796 176.650105 
L 265.422341 134.208 
L 266.616722 185.138526 
L 267.811104 172.405895 
L 269.005485 206.359579 
L 270.199866 138.452211 
L 271.394247 155.429053 
L 272.588629 146.940632 
L 273.78301 121.475368 
L 274.977391 146.940632 
L 276.171773 168.161684 
L 277.366154 163.917474 
L 278.560535 138.452211 
L 279.754916 117.231158 
L 280.949298 87.521684 
L 282.143679 155.429053 
L 283.33806 151.184842 
L 284.532441 74.789053 
L 285.726823 96.010105 
L 286.921204 129.963789 
L 288.115585 134.208 
L 289.309967 121.475368 
L 290.504348 176.650105 
L 291.698729 121.475368 
L 292.89311 176.650105 
L 294.087492 83.277474 
L 295.281873 129.963789 
L 296.476254 142.696421 
L 297.670635 172.405895 
L 298.865017 104.498526 
L 300.059398 172.405895 
L 301.253779 172.405895 
L 302.448161 117.231158 
L 303.642542 159.673263 
L 304.836923 146.940632 
L 306.031304 155.429053 
L 307.225686 129.963789 
L 308.420067 96.010105 
L 309.614448 151.184842 
L 310.808829 151.184842 
L 312.003211 159.673263 
L 313.197592 138.452211 
L 314.391973 125.719579 
L 315.586355 117.231158 
L 316.780736 168.161684 
L 317.975117 112.986947 
L 319.169498 134.208 
L 320.36388 129.963789 
L 321.558261 129.963789 
L 322.752642 146.940632 
L 323.947023 53.568 
L 325.141405 159.673263 
L 326.335786 129.963789 
L 327.530167 163.917474 
L 328.724548 155.429053 
L 329.91893 117.231158 
L 331.113311 121.475368 
L 332.307692 112.986947 
L 333.502074 172.405895 
L 334.696455 121.475368 
L 335.890836 125.719579 
L 337.085217 159.673263 
L 338.279599 129.963789 
L 339.47398 146.940632 
L 340.668361 151.184842 
L 341.862742 112.986947 
L 343.057124 91.765895 
L 344.251505 142.696421 
L 345.445886 100.254316 
L 346.640268 151.184842 
L 349.02903 91.765895 
L 350.223411 83.277474 
L 351.417793 185.138526 
L 352.612174 146.940632 
L 353.806555 159.673263 
L 355.000936 185.138526 
L 356.195318 125.719579 
L 357.389699 176.650105 
L 358.58408 134.208 
L 359.778462 214.848 
L 360.972843 206.359579 
L 362.167224 202.115368 
L 363.361605 210.603789 
L 365.750368 185.138526 
L 368.13913 176.650105 
L 369.333512 202.115368 
L 370.527893 236.069053 
L 371.722274 236.069053 
L 372.916656 231.824842 
L 374.111037 185.138526 
L 375.305418 248.801684 
L 376.499799 202.115368 
L 377.694181 210.603789 
L 378.888562 223.336421 
L 380.082943 248.801684 
L 381.277324 214.848 
L 382.471706 231.824842 
L 383.666087 214.848 
L 384.860468 231.824842 
L 386.054849 197.871158 
L 387.249231 227.580632 
L 388.443612 244.557474 
L 389.637993 214.848 
L 390.832375 236.069053 
L 392.026756 240.313263 
L 393.221137 202.115368 
L 394.415518 214.848 
L 395.6099 236.069053 
L 396.804281 223.336421 
L 397.998662 223.336421 
L 399.193043 236.069053 
L 400.387425 257.290105 
L 401.581806 223.336421 
L 402.776187 236.069053 
L 403.970569 206.359579 
L 405.16495 248.801684 
L 406.359331 244.557474 
L 407.553712 248.801684 
L 408.748094 231.824842 
L 409.942475 261.534316 
L 411.136856 223.336421 
L 412.331237 253.045895 
L 413.525619 193.626947 
L 414.72 236.069053 
L 414.72 236.069053 
" style="fill:none;stroke:#4c72b0;stroke-linecap:round;stroke-width:1.5;"/>
   </g>
   <g id="line2d_15">
    <path clip-path="url(#pcbcaa68dc7)" d="M 58.794381 285.843142 
L 59.988763 281.574997 
L 61.183144 276.739884 
L 62.377525 268.568066 
L 63.571906 267.23743 
L 67.15505 258.928965 
L 68.349431 256.039298 
L 69.543813 253.638312 
L 70.738194 251.976572 
L 71.932575 251.908789 
L 73.126957 249.463271 
L 74.321338 245.932405 
L 75.515719 245.85324 
L 76.7101 244.339658 
L 77.904482 242.247919 
L 79.098863 240.91532 
L 80.293244 239.290653 
L 82.682007 235.651623 
L 85.070769 227.652298 
L 86.265151 227.001628 
L 87.459532 224.656988 
L 88.653913 223.709897 
L 89.848294 223.027418 
L 91.042676 224.168267 
L 92.237057 223.131445 
L 93.431438 219.298818 
L 94.625819 218.383645 
L 95.820201 218.696911 
L 97.014582 216.629885 
L 98.208963 215.357887 
L 99.403344 213.813705 
L 100.597726 216.127836 
L 101.792107 212.974165 
L 102.986488 212.686177 
L 104.18087 212.006578 
L 105.375251 211.947369 
L 106.569632 208.967565 
L 107.764013 208.50134 
L 108.958395 207.032889 
L 110.152776 205.96902 
L 111.347157 202.416609 
L 112.541538 201.112889 
L 113.73592 202.039595 
L 116.124682 197.314972 
L 117.319064 197.446548 
L 118.513445 199.630778 
L 119.707826 200.477909 
L 120.902207 198.639835 
L 122.096589 197.945889 
L 123.29097 199.159087 
L 124.485351 197.305061 
L 125.679732 196.594361 
L 126.874114 194.64408 
L 128.068495 193.821192 
L 129.262876 195.847094 
L 130.457258 196.259089 
L 131.651639 195.31641 
L 132.84602 193.832456 
L 134.040401 190.602943 
L 135.234783 191.191782 
L 136.429164 190.335283 
L 137.623545 189.201434 
L 138.817926 190.343436 
L 140.012308 190.623199 
L 141.206689 187.982215 
L 142.40107 185.645473 
L 143.595452 185.422308 
L 144.789833 180.717083 
L 145.984214 184.731455 
L 147.178595 185.240639 
L 148.372977 185.006902 
L 149.567358 184.450227 
L 150.761739 183.293757 
L 151.95612 184.758351 
L 153.150502 184.393552 
L 155.539264 181.355151 
L 156.733645 180.995333 
L 157.928027 178.091334 
L 159.122408 177.078658 
L 161.511171 176.92005 
L 162.705552 177.366931 
L 163.899933 174.856156 
L 165.094314 176.404237 
L 166.288696 176.719708 
L 167.483077 176.635419 
L 168.677458 178.729957 
L 169.871839 177.364129 
L 171.066221 177.120544 
L 172.260602 178.765659 
L 173.454983 177.327453 
L 174.649365 178.27762 
L 175.843746 175.920528 
L 177.038127 172.598966 
L 178.232508 172.178226 
L 179.42689 174.236355 
L 180.621271 174.686887 
L 181.815652 173.474654 
L 183.010033 173.658149 
L 184.204415 171.569974 
L 185.398796 171.296051 
L 186.593177 170.679093 
L 187.787559 171.347516 
L 188.98194 171.557914 
L 190.176321 170.760624 
L 191.370702 168.464127 
L 192.565084 167.372847 
L 193.759465 166.983026 
L 194.953846 168.775457 
L 196.148227 168.064498 
L 197.342609 169.311837 
L 198.53699 168.468799 
L 199.731371 168.352292 
L 200.925753 166.330929 
L 202.120134 164.860057 
L 203.314515 163.208403 
L 204.508896 162.648502 
L 205.703278 162.396356 
L 206.897659 161.790868 
L 209.286421 161.808533 
L 210.480803 159.848064 
L 211.675184 160.934921 
L 212.869565 158.660545 
L 214.063946 160.109672 
L 215.258328 160.037459 
L 216.452709 157.106978 
L 217.64709 155.472121 
L 218.841472 153.344424 
L 220.035853 153.928934 
L 221.230234 152.761694 
L 222.424615 155.457487 
L 223.618997 155.204324 
L 224.813378 156.224252 
L 226.007759 152.358605 
L 227.20214 152.451396 
L 228.396522 152.768568 
L 229.590903 152.670874 
L 230.785284 152.22789 
L 231.979666 154.007212 
L 233.174047 152.36158 
L 234.368428 149.348636 
L 235.562809 151.72847 
L 236.757191 152.139591 
L 237.951572 154.676193 
L 239.145953 153.397045 
L 240.340334 154.509076 
L 241.534716 151.996881 
L 242.729097 151.391311 
L 243.923478 149.877223 
L 245.11786 151.667428 
L 246.312241 150.645138 
L 247.506622 152.258796 
L 248.701003 152.051225 
L 249.895385 152.181471 
L 251.089766 154.171046 
L 252.284147 154.627969 
L 253.478528 152.839106 
L 254.67291 152.873889 
L 255.867291 153.511606 
L 257.061672 153.418708 
L 258.256054 151.758557 
L 259.450435 152.826402 
L 260.644816 151.199299 
L 261.839197 151.34955 
L 263.033579 153.017069 
L 264.22796 150.975511 
L 265.422341 151.094882 
L 266.616722 150.219224 
L 267.811104 151.322571 
L 269.005485 148.782247 
L 270.199866 147.824064 
L 271.394247 146.62424 
L 272.588629 146.786685 
L 273.78301 145.607171 
L 274.977391 146.112136 
L 276.171773 145.235659 
L 277.366154 146.327191 
L 278.560535 147.229853 
L 279.754916 145.47488 
L 280.949298 145.20336 
L 282.143679 145.243974 
L 283.33806 145.873768 
L 284.532441 145.132653 
L 285.726823 146.677584 
L 286.921204 144.528302 
L 288.115585 143.606306 
L 289.309967 143.081131 
L 290.504348 144.15418 
L 291.698729 143.468398 
L 292.89311 143.799167 
L 295.281873 142.496527 
L 296.476254 145.395065 
L 297.670635 145.989039 
L 298.865017 145.577595 
L 300.059398 147.439322 
L 301.253779 142.758964 
L 302.448161 141.553138 
L 303.642542 141.705742 
L 304.836923 142.407716 
L 306.031304 142.660659 
L 307.225686 143.802471 
L 308.420067 142.258634 
L 309.614448 142.493372 
L 310.808829 142.98397 
L 313.197592 141.970564 
L 315.586355 139.961392 
L 316.780736 139.101973 
L 317.975117 137.996769 
L 319.169498 138.248553 
L 320.36388 137.153201 
L 321.558261 138.682182 
L 322.752642 139.646047 
L 323.947023 138.264075 
L 325.141405 139.265902 
L 326.335786 138.848029 
L 327.530167 136.273028 
L 328.724548 134.648953 
L 329.91893 137.904773 
L 331.113311 138.146708 
L 332.307692 138.6725 
L 333.502074 138.182041 
L 334.696455 136.183067 
L 335.890836 135.694897 
L 338.279599 135.959853 
L 339.47398 137.594059 
L 340.668361 138.361224 
L 341.862742 136.199369 
L 343.057124 136.851101 
L 344.251505 138.646004 
L 345.445886 138.303015 
L 346.640268 136.44656 
L 347.834649 135.465015 
L 349.02903 141.823334 
L 350.223411 147.308367 
L 351.417793 152.144634 
L 353.806555 160.400548 
L 356.195318 167.297272 
L 358.58408 173.221389 
L 360.972843 178.410949 
L 363.361605 183.024241 
L 365.750368 187.172428 
L 368.13913 190.936847 
L 370.527893 194.378956 
L 374.111037 199.039235 
L 377.694181 203.200969 
L 381.277324 206.953153 
L 384.860468 210.362905 
L 388.443612 213.482142 
L 392.026756 216.351876 
L 396.804281 219.846163 
L 401.581806 223.016879 
L 406.359331 225.912416 
L 411.136856 228.571241 
L 414.72 230.42894 
L 414.72 230.42894 
" style="fill:none;stroke:#dd8452;stroke-linecap:round;stroke-width:1.5;"/>
   </g>
   <g id="line2d_16">
    <path clip-path="url(#pcbcaa68dc7)" d="M 273.78301 307.584 
L 273.78301 41.472 
" style="fill:none;stroke:#c44e52;stroke-dasharray:5.55,2.4;stroke-dashoffset:0;stroke-width:1.5;"/>
   </g>
   <g id="patch_3">
    <path d="M 57.6 307.584 
L 57.6 41.472 
" style="fill:none;stroke:#ffffff;stroke-linecap:square;stroke-linejoin:miter;stroke-width:1.25;"/>
   </g>
   <g id="patch_4">
    <path d="M 414.72 307.584 
L 414.72 41.472 
" style="fill:none;stroke:#ffffff;stroke-linecap:square;stroke-linejoin:miter;stroke-width:1.25;"/>
   </g>
   <g id="patch_5">
    <path d="M 57.6 307.584 
L 414.72 307.584 
" style="fill:none;stroke:#ffffff;stroke-linecap:square;stroke-linejoin:miter;stroke-width:1.25;"/>
   </g>
   <g id="patch_6">
    <path d="M 57.6 41.472 
L 414.72 41.472 
" style="fill:none;stroke:#ffffff;stroke-linecap:square;stroke-linejoin:miter;stroke-width:1.25;"/>
   </g>
   <g id="text_16">
    <!-- Tracking Daily Transactions -->
    <defs>
     <path d="M 9.078125 75.984375 
L 18.109375 75.984375 
L 18.109375 31.109375 
L 44.921875 54.6875 
L 56.390625 54.6875 
L 27.390625 29.109375 
L 57.625 0 
L 45.90625 0 
L 18.109375 26.703125 
L 18.109375 0 
L 9.078125 0 
z
" id="DejaVuSans-107"/>
     <path d="M 45.40625 27.984375 
Q 45.40625 37.75 41.375 43.109375 
Q 37.359375 48.484375 30.078125 48.484375 
Q 22.859375 48.484375 18.828125 43.109375 
Q 14.796875 37.75 14.796875 27.984375 
Q 14.796875 18.265625 18.828125 12.890625 
Q 22.859375 7.515625 30.078125 7.515625 
Q 37.359375 7.515625 41.375 12.890625 
Q 45.40625 18.265625 45.40625 27.984375 
z
M 54.390625 6.78125 
Q 54.390625 -7.171875 48.1875 -13.984375 
Q 42 -20.796875 29.203125 -20.796875 
Q 24.46875 -20.796875 20.265625 -20.09375 
Q 16.0625 -19.390625 12.109375 -17.921875 
L 12.109375 -9.1875 
Q 16.0625 -11.328125 19.921875 -12.34375 
Q 23.78125 -13.375 27.78125 -13.375 
Q 36.625 -13.375 41.015625 -8.765625 
Q 45.40625 -4.15625 45.40625 5.171875 
L 45.40625 9.625 
Q 42.625 4.78125 38.28125 2.390625 
Q 33.9375 0 27.875 0 
Q 17.828125 0 11.671875 7.65625 
Q 5.515625 15.328125 5.515625 27.984375 
Q 5.515625 40.671875 11.671875 48.328125 
Q 17.828125 56 27.875 56 
Q 33.9375 56 38.28125 53.609375 
Q 42.625 51.21875 45.40625 46.390625 
L 45.40625 54.6875 
L 54.390625 54.6875 
z
" id="DejaVuSans-103"/>
     <path id="DejaVuSans-32"/>
     <path d="M 19.671875 64.796875 
L 19.671875 8.109375 
L 31.59375 8.109375 
Q 46.6875 8.109375 53.6875 14.9375 
Q 60.6875 21.78125 60.6875 36.53125 
Q 60.6875 51.171875 53.6875 57.984375 
Q 46.6875 64.796875 31.59375 64.796875 
z
M 9.8125 72.90625 
L 30.078125 72.90625 
Q 51.265625 72.90625 61.171875 64.09375 
Q 71.09375 55.28125 71.09375 36.53125 
Q 71.09375 17.671875 61.125 8.828125 
Q 51.171875 0 30.078125 0 
L 9.8125 0 
z
" id="DejaVuSans-68"/>
     <path d="M 9.421875 75.984375 
L 18.40625 75.984375 
L 18.40625 0 
L 9.421875 0 
z
" id="DejaVuSans-108"/>
    </defs>
    <g style="fill:#262626;" transform="translate(153 35.472)scale(0.12 -0.12)">
     <use xlink:href="#DejaVuSans-84"/>
     <use x="60.865234" xlink:href="#DejaVuSans-114"/>
     <use x="101.978516" xlink:href="#DejaVuSans-97"/>
     <use x="163.257812" xlink:href="#DejaVuSans-99"/>
     <use x="218.238281" xlink:href="#DejaVuSans-107"/>
     <use x="276.148438" xlink:href="#DejaVuSans-105"/>
     <use x="303.931641" xlink:href="#DejaVuSans-110"/>
     <use x="367.310547" xlink:href="#DejaVuSans-103"/>
     <use x="430.787109" xlink:href="#DejaVuSans-32"/>
     <use x="462.574219" xlink:href="#DejaVuSans-68"/>
     <use x="539.576172" xlink:href="#DejaVuSans-97"/>
     <use x="600.855469" xlink:href="#DejaVuSans-105"/>
     <use x="628.638672" xlink:href="#DejaVuSans-108"/>
     <use x="656.421875" xlink:href="#DejaVuSans-121"/>
     <use x="715.601562" xlink:href="#DejaVuSans-32"/>
     <use x="747.388672" xlink:href="#DejaVuSans-84"/>
     <use x="808.253906" xlink:href="#DejaVuSans-114"/>
     <use x="849.367188" xlink:href="#DejaVuSans-97"/>
     <use x="910.646484" xlink:href="#DejaVuSans-110"/>
     <use x="974.025391" xlink:href="#DejaVuSans-115"/>
     <use x="1026.125" xlink:href="#DejaVuSans-97"/>
     <use x="1087.404297" xlink:href="#DejaVuSans-99"/>
     <use x="1142.384766" xlink:href="#DejaVuSans-116"/>
     <use x="1181.59375" xlink:href="#DejaVuSans-105"/>
     <use x="1209.376953" xlink:href="#DejaVuSans-111"/>
     <use x="1270.558594" xlink:href="#DejaVuSans-110"/>
     <use x="1333.9375" xlink:href="#DejaVuSans-115"/>
    </g>
   </g>
   <g id="legend_1">
    <g id="patch_7">
     <path d="M 65.3 82.563875 
L 152.921875 82.563875 
Q 155.121875 82.563875 155.121875 80.363875 
L 155.121875 49.172 
Q 155.121875 46.972 152.921875 46.972 
L 65.3 46.972 
Q 63.1 46.972 63.1 49.172 
L 63.1 80.363875 
Q 63.1 82.563875 65.3 82.563875 
z
" style="fill:#eaeaf2;opacity:0.8;stroke:#cccccc;stroke-linejoin:miter;"/>
    </g>
    <g id="line2d_17">
     <path d="M 67.5 55.880281 
L 89.5 55.880281 
" style="fill:none;stroke:#4c72b0;stroke-linecap:round;stroke-width:1.5;"/>
    </g>
    <g id="line2d_18"/>
    <g id="text_17">
     <!-- actual -->
     <defs>
      <path d="M 8.5 21.578125 
L 8.5 54.6875 
L 17.484375 54.6875 
L 17.484375 21.921875 
Q 17.484375 14.15625 20.5 10.265625 
Q 23.53125 6.390625 29.59375 6.390625 
Q 36.859375 6.390625 41.078125 11.03125 
Q 45.3125 15.671875 45.3125 23.6875 
L 45.3125 54.6875 
L 54.296875 54.6875 
L 54.296875 0 
L 45.3125 0 
L 45.3125 8.40625 
Q 42.046875 3.421875 37.71875 1 
Q 33.40625 -1.421875 27.6875 -1.421875 
Q 18.265625 -1.421875 13.375 4.4375 
Q 8.5 10.296875 8.5 21.578125 
z
M 31.109375 56 
z
" id="DejaVuSans-117"/>
     </defs>
     <g style="fill:#262626;" transform="translate(98.3 59.730281)scale(0.11 -0.11)">
      <use xlink:href="#DejaVuSans-97"/>
      <use x="61.279297" xlink:href="#DejaVuSans-99"/>
      <use x="116.259766" xlink:href="#DejaVuSans-116"/>
      <use x="155.46875" xlink:href="#DejaVuSans-117"/>
      <use x="218.847656" xlink:href="#DejaVuSans-97"/>
      <use x="280.126953" xlink:href="#DejaVuSans-108"/>
     </g>
    </g>
    <g id="line2d_19">
     <path d="M 67.5 72.026219 
L 89.5 72.026219 
" style="fill:none;stroke:#dd8452;stroke-linecap:round;stroke-width:1.5;"/>
    </g>
    <g id="line2d_20"/>
    <g id="text_18">
     <!-- predicted -->
     <defs>
      <path d="M 18.109375 8.203125 
L 18.109375 -20.796875 
L 9.078125 -20.796875 
L 9.078125 54.6875 
L 18.109375 54.6875 
L 18.109375 46.390625 
Q 20.953125 51.265625 25.265625 53.625 
Q 29.59375 56 35.59375 56 
Q 45.5625 56 51.78125 48.09375 
Q 58.015625 40.1875 58.015625 27.296875 
Q 58.015625 14.40625 51.78125 6.484375 
Q 45.5625 -1.421875 35.59375 -1.421875 
Q 29.59375 -1.421875 25.265625 0.953125 
Q 20.953125 3.328125 18.109375 8.203125 
z
M 48.6875 27.296875 
Q 48.6875 37.203125 44.609375 42.84375 
Q 40.53125 48.484375 33.40625 48.484375 
Q 26.265625 48.484375 22.1875 42.84375 
Q 18.109375 37.203125 18.109375 27.296875 
Q 18.109375 17.390625 22.1875 11.75 
Q 26.265625 6.109375 33.40625 6.109375 
Q 40.53125 6.109375 44.609375 11.75 
Q 48.6875 17.390625 48.6875 27.296875 
z
" id="DejaVuSans-112"/>
      <path d="M 56.203125 29.59375 
L 56.203125 25.203125 
L 14.890625 25.203125 
Q 15.484375 15.921875 20.484375 11.0625 
Q 25.484375 6.203125 34.421875 6.203125 
Q 39.59375 6.203125 44.453125 7.46875 
Q 49.3125 8.734375 54.109375 11.28125 
L 54.109375 2.78125 
Q 49.265625 0.734375 44.1875 -0.34375 
Q 39.109375 -1.421875 33.890625 -1.421875 
Q 20.796875 -1.421875 13.15625 6.1875 
Q 5.515625 13.8125 5.515625 26.8125 
Q 5.515625 40.234375 12.765625 48.109375 
Q 20.015625 56 32.328125 56 
Q 43.359375 56 49.78125 48.890625 
Q 56.203125 41.796875 56.203125 29.59375 
z
M 47.21875 32.234375 
Q 47.125 39.59375 43.09375 43.984375 
Q 39.0625 48.390625 32.421875 48.390625 
Q 24.90625 48.390625 20.390625 44.140625 
Q 15.875 39.890625 15.1875 32.171875 
z
" id="DejaVuSans-101"/>
     </defs>
     <g style="fill:#262626;" transform="translate(98.3 75.876219)scale(0.11 -0.11)">
      <use xlink:href="#DejaVuSans-112"/>
      <use x="63.476562" xlink:href="#DejaVuSans-114"/>
      <use x="104.558594" xlink:href="#DejaVuSans-101"/>
      <use x="166.082031" xlink:href="#DejaVuSans-100"/>
      <use x="229.558594" xlink:href="#DejaVuSans-105"/>
      <use x="257.341797" xlink:href="#DejaVuSans-99"/>
      <use x="312.322266" xlink:href="#DejaVuSans-116"/>
      <use x="351.53125" xlink:href="#DejaVuSans-101"/>
      <use x="413.054688" xlink:href="#DejaVuSans-100"/>
     </g>
    </g>
   </g>
  </g>
 </g>
 <defs>
  <clipPath id="pcbcaa68dc7">
   <rect height="266.112" width="357.12" x="57.6" y="41.472"/>
  </clipPath>
 </defs>
</svg>
