<?xml version="1.0" encoding="utf-8" standalone="no"?>
<!DOCTYPE svg PUBLIC "-//W3C//DTD SVG 1.1//EN"
  "http://www.w3.org/Graphics/SVG/1.1/DTD/svg11.dtd">
<!-- Created with matplotlib (http://matplotlib.org/) -->
<svg height="345.6pt" version="1.1" viewBox="0 0 460.8 345.6" width="460.8pt" xmlns="http://www.w3.org/2000/svg" xmlns:xlink="http://www.w3.org/1999/xlink">
 <defs>
  <style type="text/css">
*{stroke-linecap:butt;stroke-linejoin:round;}
  </style>
 </defs>
 <g id="figure_1">
  <g id="patch_1">
   <path d="M 0 345.6 
L 460.8 345.6 
L 460.8 0 
L 0 0 
z
" style="fill:#ffffff;"/>
  </g>
  <g id="axes_1">
   <g id="patch_2">
    <path d="M 57.6 307.584 
L 414.72 307.584 
L 414.72 41.472 
L 57.6 41.472 
z
" style="fill:#ffffff;"/>
   </g>
   <g id="matplotlib.axis_1">
    <g id="xtick_1">
     <g id="line2d_1">
      <defs>
       <path d="M 0 0 
L 0 3.5 
" id="mfa320ddf64" style="stroke:#000000;stroke-width:0.8;"/>
      </defs>
      <g>
       <use style="stroke:#000000;stroke-width:0.8;" x="57.6" xlink:href="#mfa320ddf64" y="307.584"/>
      </g>
     </g>
     <g id="text_1">
      <!-- 0 -->
      <defs>
       <path d="M 31.78125 66.40625 
Q 24.171875 66.40625 20.328125 58.90625 
Q 16.5 51.421875 16.5 36.375 
Q 16.5 21.390625 20.328125 13.890625 
Q 24.171875 6.390625 31.78125 6.390625 
Q 39.453125 6.390625 43.28125 13.890625 
Q 47.125 21.390625 47.125 36.375 
Q 47.125 51.421875 43.28125 58.90625 
Q 39.453125 66.40625 31.78125 66.40625 
z
M 31.78125 74.21875 
Q 44.046875 74.21875 50.515625 64.515625 
Q 56.984375 54.828125 56.984375 36.375 
Q 56.984375 17.96875 50.515625 8.265625 
Q 44.046875 -1.421875 31.78125 -1.421875 
Q 19.53125 -1.421875 13.0625 8.265625 
Q 6.59375 17.96875 6.59375 36.375 
Q 6.59375 54.828125 13.0625 64.515625 
Q 19.53125 74.21875 31.78125 74.21875 
z
" id="DejaVuSans-30"/>
      </defs>
      <g transform="translate(54.41875 322.182437)scale(0.1 -0.1)">
       <use xlink:href="#DejaVuSans-30"/>
      </g>
     </g>
    </g>
    <g id="xtick_2">
     <g id="line2d_2">
      <g>
       <use style="stroke:#000000;stroke-width:0.8;" x="117.319064" xlink:href="#mfa320ddf64" y="307.584"/>
      </g>
     </g>
     <g id="text_2">
      <!-- 50 -->
      <defs>
       <path d="M 10.796875 72.90625 
L 49.515625 72.90625 
L 49.515625 64.59375 
L 19.828125 64.59375 
L 19.828125 46.734375 
Q 21.96875 47.46875 24.109375 47.828125 
Q 26.265625 48.1875 28.421875 48.1875 
Q 40.625 48.1875 47.75 41.5 
Q 54.890625 34.8125 54.890625 23.390625 
Q 54.890625 11.625 47.5625 5.09375 
Q 40.234375 -1.421875 26.90625 -1.421875 
Q 22.3125 -1.421875 17.546875 -0.640625 
Q 12.796875 0.140625 7.71875 1.703125 
L 7.71875 11.625 
Q 12.109375 9.234375 16.796875 8.0625 
Q 21.484375 6.890625 26.703125 6.890625 
Q 35.15625 6.890625 40.078125 11.328125 
Q 45.015625 15.765625 45.015625 23.390625 
Q 45.015625 31 40.078125 35.4375 
Q 35.15625 39.890625 26.703125 39.890625 
Q 22.75 39.890625 18.8125 39.015625 
Q 14.890625 38.140625 10.796875 36.28125 
z
" id="DejaVuSans-35"/>
      </defs>
      <g transform="translate(110.956564 322.182437)scale(0.1 -0.1)">
       <use xlink:href="#DejaVuSans-35"/>
       <use x="63.623047" xlink:href="#DejaVuSans-30"/>
      </g>
     </g>
    </g>
    <g id="xtick_3">
     <g id="line2d_3">
      <g>
       <use style="stroke:#000000;stroke-width:0.8;" x="177.038127" xlink:href="#mfa320ddf64" y="307.584"/>
      </g>
     </g>
     <g id="text_3">
      <!-- 100 -->
      <defs>
       <path d="M 12.40625 8.296875 
L 28.515625 8.296875 
L 28.515625 63.921875 
L 10.984375 60.40625 
L 10.984375 69.390625 
L 28.421875 72.90625 
L 38.28125 72.90625 
L 38.28125 8.296875 
L 54.390625 8.296875 
L 54.390625 0 
L 12.40625 0 
z
" id="DejaVuSans-31"/>
      </defs>
      <g transform="translate(167.494377 322.182437)scale(0.1 -0.1)">
       <use xlink:href="#DejaVuSans-31"/>
       <use x="63.623047" xlink:href="#DejaVuSans-30"/>
       <use x="127.246094" xlink:href="#DejaVuSans-30"/>
      </g>
     </g>
    </g>
    <g id="xtick_4">
     <g id="line2d_4">
      <g>
       <use style="stroke:#000000;stroke-width:0.8;" x="236.757191" xlink:href="#mfa320ddf64" y="307.584"/>
      </g>
     </g>
     <g id="text_4">
      <!-- 150 -->
      <g transform="translate(227.213441 322.182437)scale(0.1 -0.1)">
       <use xlink:href="#DejaVuSans-31"/>
       <use x="63.623047" xlink:href="#DejaVuSans-35"/>
       <use x="127.246094" xlink:href="#DejaVuSans-30"/>
      </g>
     </g>
    </g>
    <g id="xtick_5">
     <g id="line2d_5">
      <g>
       <use style="stroke:#000000;stroke-width:0.8;" x="296.476254" xlink:href="#mfa320ddf64" y="307.584"/>
      </g>
     </g>
     <g id="text_5">
      <!-- 200 -->
      <defs>
       <path d="M 19.1875 8.296875 
L 53.609375 8.296875 
L 53.609375 0 
L 7.328125 0 
L 7.328125 8.296875 
Q 12.9375 14.109375 22.625 23.890625 
Q 32.328125 33.6875 34.8125 36.53125 
Q 39.546875 41.84375 41.421875 45.53125 
Q 43.3125 49.21875 43.3125 52.78125 
Q 43.3125 58.59375 39.234375 62.25 
Q 35.15625 65.921875 28.609375 65.921875 
Q 23.96875 65.921875 18.8125 64.3125 
Q 13.671875 62.703125 7.8125 59.421875 
L 7.8125 69.390625 
Q 13.765625 71.78125 18.9375 73 
Q 24.125 74.21875 28.421875 74.21875 
Q 39.75 74.21875 46.484375 68.546875 
Q 53.21875 62.890625 53.21875 53.421875 
Q 53.21875 48.921875 51.53125 44.890625 
Q 49.859375 40.875 45.40625 35.40625 
Q 44.1875 33.984375 37.640625 27.21875 
Q 31.109375 20.453125 19.1875 8.296875 
z
" id="DejaVuSans-32"/>
      </defs>
      <g transform="translate(286.932504 322.182437)scale(0.1 -0.1)">
       <use xlink:href="#DejaVuSans-32"/>
       <use x="63.623047" xlink:href="#DejaVuSans-30"/>
       <use x="127.246094" xlink:href="#DejaVuSans-30"/>
      </g>
     </g>
    </g>
    <g id="xtick_6">
     <g id="line2d_6">
      <g>
       <use style="stroke:#000000;stroke-width:0.8;" x="356.195318" xlink:href="#mfa320ddf64" y="307.584"/>
      </g>
     </g>
     <g id="text_6">
      <!-- 250 -->
      <g transform="translate(346.651568 322.182437)scale(0.1 -0.1)">
       <use xlink:href="#DejaVuSans-32"/>
       <use x="63.623047" xlink:href="#DejaVuSans-35"/>
       <use x="127.246094" xlink:href="#DejaVuSans-30"/>
      </g>
     </g>
    </g>
    <g id="text_7">
     <!-- day -->
     <defs>
      <path d="M 45.40625 46.390625 
L 45.40625 75.984375 
L 54.390625 75.984375 
L 54.390625 0 
L 45.40625 0 
L 45.40625 8.203125 
Q 42.578125 3.328125 38.25 0.953125 
Q 33.9375 -1.421875 27.875 -1.421875 
Q 17.96875 -1.421875 11.734375 6.484375 
Q 5.515625 14.40625 5.515625 27.296875 
Q 5.515625 40.1875 11.734375 48.09375 
Q 17.96875 56 27.875 56 
Q 33.9375 56 38.25 53.625 
Q 42.578125 51.265625 45.40625 46.390625 
z
M 14.796875 27.296875 
Q 14.796875 17.390625 18.875 11.75 
Q 22.953125 6.109375 30.078125 6.109375 
Q 37.203125 6.109375 41.296875 11.75 
Q 45.40625 17.390625 45.40625 27.296875 
Q 45.40625 37.203125 41.296875 42.84375 
Q 37.203125 48.484375 30.078125 48.484375 
Q 22.953125 48.484375 18.875 42.84375 
Q 14.796875 37.203125 14.796875 27.296875 
z
" id="DejaVuSans-64"/>
      <path d="M 34.28125 27.484375 
Q 23.390625 27.484375 19.1875 25 
Q 14.984375 22.515625 14.984375 16.5 
Q 14.984375 11.71875 18.140625 8.90625 
Q 21.296875 6.109375 26.703125 6.109375 
Q 34.1875 6.109375 38.703125 11.40625 
Q 43.21875 16.703125 43.21875 25.484375 
L 43.21875 27.484375 
z
M 52.203125 31.203125 
L 52.203125 0 
L 43.21875 0 
L 43.21875 8.296875 
Q 40.140625 3.328125 35.546875 0.953125 
Q 30.953125 -1.421875 24.3125 -1.421875 
Q 15.921875 -1.421875 10.953125 3.296875 
Q 6 8.015625 6 15.921875 
Q 6 25.140625 12.171875 29.828125 
Q 18.359375 34.515625 30.609375 34.515625 
L 43.21875 34.515625 
L 43.21875 35.40625 
Q 43.21875 41.609375 39.140625 45 
Q 35.0625 48.390625 27.6875 48.390625 
Q 23 48.390625 18.546875 47.265625 
Q 14.109375 46.140625 10.015625 43.890625 
L 10.015625 52.203125 
Q 14.9375 54.109375 19.578125 55.046875 
Q 24.21875 56 28.609375 56 
Q 40.484375 56 46.34375 49.84375 
Q 52.203125 43.703125 52.203125 31.203125 
z
" id="DejaVuSans-61"/>
      <path d="M 32.171875 -5.078125 
Q 28.375 -14.84375 24.75 -17.8125 
Q 21.140625 -20.796875 15.09375 -20.796875 
L 7.90625 -20.796875 
L 7.90625 -13.28125 
L 13.1875 -13.28125 
Q 16.890625 -13.28125 18.9375 -11.515625 
Q 21 -9.765625 23.484375 -3.21875 
L 25.09375 0.875 
L 2.984375 54.6875 
L 12.5 54.6875 
L 29.59375 11.921875 
L 46.6875 54.6875 
L 56.203125 54.6875 
z
" id="DejaVuSans-79"/>
     </defs>
     <g transform="translate(226.962344 335.860562)scale(0.1 -0.1)">
      <use xlink:href="#DejaVuSans-64"/>
      <use x="63.476562" xlink:href="#DejaVuSans-61"/>
      <use x="124.755859" xlink:href="#DejaVuSans-79"/>
     </g>
    </g>
   </g>
   <g id="matplotlib.axis_2">
    <g id="ytick_1">
     <g id="line2d_7">
      <defs>
       <path d="M 0 0 
L -3.5 0 
" id="m299ecd5698" style="stroke:#000000;stroke-width:0.8;"/>
      </defs>
      <g>
       <use style="stroke:#000000;stroke-width:0.8;" x="57.6" xlink:href="#m299ecd5698" y="298.927621"/>
      </g>
     </g>
     <g id="text_8">
      <!-- 0 -->
      <g transform="translate(44.2375 302.72684)scale(0.1 -0.1)">
       <use xlink:href="#DejaVuSans-30"/>
      </g>
     </g>
    </g>
    <g id="ytick_2">
     <g id="line2d_8">
      <g>
       <use style="stroke:#000000;stroke-width:0.8;" x="57.6" xlink:href="#m299ecd5698" y="241.600607"/>
      </g>
     </g>
     <g id="text_9">
      <!-- 50 -->
      <g transform="translate(37.875 245.399825)scale(0.1 -0.1)">
       <use xlink:href="#DejaVuSans-35"/>
       <use x="63.623047" xlink:href="#DejaVuSans-30"/>
      </g>
     </g>
    </g>
    <g id="ytick_3">
     <g id="line2d_9">
      <g>
       <use style="stroke:#000000;stroke-width:0.8;" x="57.6" xlink:href="#m299ecd5698" y="184.273592"/>
      </g>
     </g>
     <g id="text_10">
      <!-- 100 -->
      <g transform="translate(31.5125 188.072811)scale(0.1 -0.1)">
       <use xlink:href="#DejaVuSans-31"/>
       <use x="63.623047" xlink:href="#DejaVuSans-30"/>
       <use x="127.246094" xlink:href="#DejaVuSans-30"/>
      </g>
     </g>
    </g>
    <g id="ytick_4">
     <g id="line2d_10">
      <g>
       <use style="stroke:#000000;stroke-width:0.8;" x="57.6" xlink:href="#m299ecd5698" y="126.946578"/>
      </g>
     </g>
     <g id="text_11">
      <!-- 150 -->
      <g transform="translate(31.5125 130.745797)scale(0.1 -0.1)">
       <use xlink:href="#DejaVuSans-31"/>
       <use x="63.623047" xlink:href="#DejaVuSans-35"/>
       <use x="127.246094" xlink:href="#DejaVuSans-30"/>
      </g>
     </g>
    </g>
    <g id="ytick_5">
     <g id="line2d_11">
      <g>
       <use style="stroke:#000000;stroke-width:0.8;" x="57.6" xlink:href="#m299ecd5698" y="69.619564"/>
      </g>
     </g>
     <g id="text_12">
      <!-- 200 -->
      <g transform="translate(31.5125 73.418783)scale(0.1 -0.1)">
       <use xlink:href="#DejaVuSans-32"/>
       <use x="63.623047" xlink:href="#DejaVuSans-30"/>
       <use x="127.246094" xlink:href="#DejaVuSans-30"/>
      </g>
     </g>
    </g>
    <g id="text_13">
     <!-- Transactions -->
     <defs>
      <path d="M -0.296875 72.90625 
L 61.375 72.90625 
L 61.375 64.59375 
L 35.5 64.59375 
L 35.5 0 
L 25.59375 0 
L 25.59375 64.59375 
L -0.296875 64.59375 
z
" id="DejaVuSans-54"/>
      <path d="M 41.109375 46.296875 
Q 39.59375 47.171875 37.8125 47.578125 
Q 36.03125 48 33.890625 48 
Q 26.265625 48 22.1875 43.046875 
Q 18.109375 38.09375 18.109375 28.8125 
L 18.109375 0 
L 9.078125 0 
L 9.078125 54.6875 
L 18.109375 54.6875 
L 18.109375 46.1875 
Q 20.953125 51.171875 25.484375 53.578125 
Q 30.03125 56 36.53125 56 
Q 37.453125 56 38.578125 55.875 
Q 39.703125 55.765625 41.0625 55.515625 
z
" id="DejaVuSans-72"/>
      <path d="M 54.890625 33.015625 
L 54.890625 0 
L 45.90625 0 
L 45.90625 32.71875 
Q 45.90625 40.484375 42.875 44.328125 
Q 39.84375 48.1875 33.796875 48.1875 
Q 26.515625 48.1875 22.3125 43.546875 
Q 18.109375 38.921875 18.109375 30.90625 
L 18.109375 0 
L 9.078125 0 
L 9.078125 54.6875 
L 18.109375 54.6875 
L 18.109375 46.1875 
Q 21.34375 51.125 25.703125 53.5625 
Q 30.078125 56 35.796875 56 
Q 45.21875 56 50.046875 50.171875 
Q 54.890625 44.34375 54.890625 33.015625 
z
" id="DejaVuSans-6e"/>
      <path d="M 44.28125 53.078125 
L 44.28125 44.578125 
Q 40.484375 46.53125 36.375 47.5 
Q 32.28125 48.484375 27.875 48.484375 
Q 21.1875 48.484375 17.84375 46.4375 
Q 14.5 44.390625 14.5 40.28125 
Q 14.5 37.15625 16.890625 35.375 
Q 19.28125 33.59375 26.515625 31.984375 
L 29.59375 31.296875 
Q 39.15625 29.25 43.1875 25.515625 
Q 47.21875 21.78125 47.21875 15.09375 
Q 47.21875 7.46875 41.1875 3.015625 
Q 35.15625 -1.421875 24.609375 -1.421875 
Q 20.21875 -1.421875 15.453125 -0.5625 
Q 10.6875 0.296875 5.421875 2 
L 5.421875 11.28125 
Q 10.40625 8.6875 15.234375 7.390625 
Q 20.0625 6.109375 24.8125 6.109375 
Q 31.15625 6.109375 34.5625 8.28125 
Q 37.984375 10.453125 37.984375 14.40625 
Q 37.984375 18.0625 35.515625 20.015625 
Q 33.0625 21.96875 24.703125 23.78125 
L 21.578125 24.515625 
Q 13.234375 26.265625 9.515625 29.90625 
Q 5.8125 33.546875 5.8125 39.890625 
Q 5.8125 47.609375 11.28125 51.796875 
Q 16.75 56 26.8125 56 
Q 31.78125 56 36.171875 55.265625 
Q 40.578125 54.546875 44.28125 53.078125 
z
" id="DejaVuSans-73"/>
      <path d="M 48.78125 52.59375 
L 48.78125 44.1875 
Q 44.96875 46.296875 41.140625 47.34375 
Q 37.3125 48.390625 33.40625 48.390625 
Q 24.65625 48.390625 19.8125 42.84375 
Q 14.984375 37.3125 14.984375 27.296875 
Q 14.984375 17.28125 19.8125 11.734375 
Q 24.65625 6.203125 33.40625 6.203125 
Q 37.3125 6.203125 41.140625 7.25 
Q 44.96875 8.296875 48.78125 10.40625 
L 48.78125 2.09375 
Q 45.015625 0.34375 40.984375 -0.53125 
Q 36.96875 -1.421875 32.421875 -1.421875 
Q 20.0625 -1.421875 12.78125 6.34375 
Q 5.515625 14.109375 5.515625 27.296875 
Q 5.515625 40.671875 12.859375 48.328125 
Q 20.21875 56 33.015625 56 
Q 37.15625 56 41.109375 55.140625 
Q 45.0625 54.296875 48.78125 52.59375 
z
" id="DejaVuSans-63"/>
      <path d="M 18.3125 70.21875 
L 18.3125 54.6875 
L 36.8125 54.6875 
L 36.8125 47.703125 
L 18.3125 47.703125 
L 18.3125 18.015625 
Q 18.3125 11.328125 20.140625 9.421875 
Q 21.96875 7.515625 27.59375 7.515625 
L 36.8125 7.515625 
L 36.8125 0 
L 27.59375 0 
Q 17.1875 0 13.234375 3.875 
Q 9.28125 7.765625 9.28125 18.015625 
L 9.28125 47.703125 
L 2.6875 47.703125 
L 2.6875 54.6875 
L 9.28125 54.6875 
L 9.28125 70.21875 
z
" id="DejaVuSans-74"/>
      <path d="M 9.421875 54.6875 
L 18.40625 54.6875 
L 18.40625 0 
L 9.421875 0 
z
M 9.421875 75.984375 
L 18.40625 75.984375 
L 18.40625 64.59375 
L 9.421875 64.59375 
z
" id="DejaVuSans-69"/>
      <path d="M 30.609375 48.390625 
Q 23.390625 48.390625 19.1875 42.75 
Q 14.984375 37.109375 14.984375 27.296875 
Q 14.984375 17.484375 19.15625 11.84375 
Q 23.34375 6.203125 30.609375 6.203125 
Q 37.796875 6.203125 41.984375 11.859375 
Q 46.1875 17.53125 46.1875 27.296875 
Q 46.1875 37.015625 41.984375 42.703125 
Q 37.796875 48.390625 30.609375 48.390625 
z
M 30.609375 56 
Q 42.328125 56 49.015625 48.375 
Q 55.71875 40.765625 55.71875 27.296875 
Q 55.71875 13.875 49.015625 6.21875 
Q 42.328125 -1.421875 30.609375 -1.421875 
Q 18.84375 -1.421875 12.171875 6.21875 
Q 5.515625 13.875 5.515625 27.296875 
Q 5.515625 40.765625 12.171875 48.375 
Q 18.84375 56 30.609375 56 
z
" id="DejaVuSans-6f"/>
     </defs>
     <g transform="translate(25.432812 206.45925)rotate(-90)scale(0.1 -0.1)">
      <use xlink:href="#DejaVuSans-54"/>
      <use x="60.865234" xlink:href="#DejaVuSans-72"/>
      <use x="101.978516" xlink:href="#DejaVuSans-61"/>
      <use x="163.257812" xlink:href="#DejaVuSans-6e"/>
      <use x="226.636719" xlink:href="#DejaVuSans-73"/>
      <use x="278.736328" xlink:href="#DejaVuSans-61"/>
      <use x="340.015625" xlink:href="#DejaVuSans-63"/>
      <use x="394.996094" xlink:href="#DejaVuSans-74"/>
      <use x="434.205078" xlink:href="#DejaVuSans-69"/>
      <use x="461.988281" xlink:href="#DejaVuSans-6f"/>
      <use x="523.169922" xlink:href="#DejaVuSans-6e"/>
      <use x="586.548828" xlink:href="#DejaVuSans-73"/>
     </g>
    </g>
   </g>
   <g id="line2d_12">
    <path clip-path="url(#p1e96bf9ca5)" d="M 58.794381 295.488 
L 59.988763 292.048379 
L 61.183144 295.488 
L 62.377525 294.34146 
L 63.571906 285.169137 
L 64.766288 288.608758 
L 65.960669 274.850275 
L 67.15505 275.996815 
L 68.349431 278.289896 
L 69.543813 272.557194 
L 70.738194 284.022597 
L 71.932575 281.729517 
L 73.126957 264.531412 
L 74.321338 267.971033 
L 75.515719 282.876057 
L 76.7101 247.333308 
L 77.904482 254.21255 
L 79.098863 269.117573 
L 80.293244 254.21255 
L 81.487625 253.066009 
L 82.682007 240.454066 
L 83.876388 263.384872 
L 85.070769 232.428284 
L 86.265151 243.893687 
L 87.459532 250.772929 
L 88.653913 234.721365 
L 89.848294 237.014445 
L 92.237057 227.842123 
L 93.431438 237.014445 
L 94.625819 228.988664 
L 95.820201 233.574825 
L 97.014582 211.790559 
L 98.208963 207.204398 
L 99.403344 207.204398 
L 100.597726 220.962882 
L 101.792107 199.178616 
L 102.986488 191.152834 
L 104.18087 200.325156 
L 105.375251 184.273592 
L 106.569632 194.592455 
L 107.764013 206.057858 
L 108.958395 211.790559 
L 110.152776 202.618237 
L 111.347157 218.669801 
L 112.541538 195.738995 
L 113.73592 190.006294 
L 114.930301 193.445915 
L 116.124682 178.540891 
L 117.319064 179.687431 
L 118.513445 188.859754 
L 119.707826 191.152834 
L 120.902207 188.859754 
L 122.096589 134.97236 
L 123.29097 176.24781 
L 124.485351 155.610085 
L 125.679732 156.756626 
L 126.874114 176.24781 
L 128.068495 193.445915 
L 129.262876 183.127052 
L 130.457258 173.95473 
L 131.651639 148.730844 
L 132.84602 176.24781 
L 134.040401 163.635867 
L 135.234783 177.394351 
L 136.429164 121.213877 
L 137.623545 151.023924 
L 138.817926 126.946578 
L 140.012308 125.800038 
L 141.206689 126.946578 
L 142.40107 99.429611 
L 143.595452 146.437763 
L 144.789833 177.394351 
L 145.984214 164.782408 
L 147.178595 149.877384 
L 148.372977 116.627716 
L 149.567358 147.584303 
L 150.761739 141.851602 
L 151.95612 142.998142 
L 153.150502 133.82582 
L 154.344883 137.265441 
L 155.539264 117.774256 
L 156.733645 138.411981 
L 157.928027 121.213877 
L 159.122408 148.730844 
L 160.316789 146.437763 
L 161.511171 172.80819 
L 162.705552 164.782408 
L 163.899933 151.023924 
L 165.094314 130.386199 
L 166.288696 154.463545 
L 167.483077 152.170464 
L 168.677458 175.10127 
L 169.871839 108.601934 
L 171.066221 134.97236 
L 172.260602 93.69691 
L 173.454983 153.317005 
L 174.649365 181.980512 
L 175.843746 144.144682 
L 177.038127 118.920796 
L 178.232508 165.928948 
L 179.42689 178.540891 
L 180.621271 153.317005 
L 181.815652 146.437763 
L 183.010033 165.928948 
L 184.204415 164.782408 
L 185.398796 175.10127 
L 186.593177 140.705062 
L 187.787559 155.610085 
L 188.98194 164.782408 
L 190.176321 148.730844 
L 191.370702 183.127052 
L 192.565084 154.463545 
L 193.759465 199.178616 
L 194.953846 193.445915 
L 197.342609 153.317005 
L 198.53699 188.859754 
L 199.731371 184.273592 
L 200.925753 193.445915 
L 202.120134 192.299374 
L 203.314515 169.368569 
L 204.508896 175.10127 
L 205.703278 175.10127 
L 206.897659 177.394351 
L 208.09204 177.394351 
L 209.286421 190.006294 
L 210.480803 211.790559 
L 211.675184 223.255962 
L 212.869565 188.859754 
L 214.063946 191.152834 
L 215.258328 153.317005 
L 216.452709 180.833972 
L 217.64709 187.713213 
L 218.841472 200.325156 
L 220.035853 196.885536 
L 221.230234 178.540891 
L 222.424615 194.592455 
L 223.618997 181.980512 
L 224.813378 181.980512 
L 226.007759 208.350938 
L 227.20214 211.790559 
L 228.396522 223.255962 
L 229.590903 228.988664 
L 230.785284 207.204398 
L 231.979666 207.204398 
L 233.174047 201.471697 
L 234.368428 216.37672 
L 235.562809 190.006294 
L 236.757191 212.9371 
L 237.951572 171.661649 
L 239.145953 192.299374 
L 240.340334 194.592455 
L 241.534716 201.471697 
L 242.729097 220.962882 
L 243.923478 202.618237 
L 245.11786 222.109422 
L 246.312241 216.37672 
L 247.506622 201.471697 
L 248.701003 218.669801 
L 249.895385 199.178616 
L 251.089766 204.911318 
L 252.284147 232.428284 
L 253.478528 211.790559 
L 254.67291 177.394351 
L 255.867291 194.592455 
L 257.061672 190.006294 
L 258.256054 212.9371 
L 259.450435 196.885536 
L 260.644816 164.782408 
L 261.839197 173.95473 
L 263.033579 132.67928 
L 264.22796 109.748474 
L 265.422341 53.568 
L 266.616722 123.506957 
L 267.811104 159.049706 
L 269.005485 177.394351 
L 270.199866 211.790559 
L 271.394247 208.350938 
L 272.588629 198.032076 
L 273.78301 186.566673 
L 274.977391 198.032076 
L 276.171773 226.695583 
L 277.366154 241.600607 
L 278.560535 207.204398 
L 279.754916 203.764777 
L 280.949298 199.178616 
L 282.143679 187.713213 
L 283.33806 216.37672 
L 284.532441 226.695583 
L 285.726823 234.721365 
L 286.921204 215.23018 
L 288.115585 238.160986 
L 289.309967 202.618237 
L 290.504348 224.402502 
L 291.698729 240.454066 
L 292.89311 223.255962 
L 294.087492 235.867905 
L 295.281873 237.014445 
L 296.476254 201.471697 
L 297.670635 184.273592 
L 298.865017 171.661649 
L 300.059398 196.885536 
L 301.253779 196.885536 
L 302.448161 185.420133 
L 303.642542 61.593782 
L 304.836923 118.920796 
L 306.031304 124.653498 
L 307.225686 137.265441 
L 308.420067 144.144682 
L 309.614448 141.851602 
L 310.808829 188.859754 
L 312.003211 217.523261 
L 313.197592 159.049706 
L 314.391973 167.075488 
L 315.586355 226.695583 
L 316.780736 234.721365 
L 317.975117 241.600607 
L 319.169498 226.695583 
L 320.36388 238.160986 
L 321.558261 223.255962 
L 322.752642 225.549043 
L 323.947023 222.109422 
L 325.141405 220.962882 
L 326.335786 227.842123 
L 327.530167 217.523261 
L 328.724548 214.08364 
L 329.91893 211.790559 
L 331.113311 211.790559 
L 332.307692 204.911318 
L 333.502074 215.23018 
L 334.696455 226.695583 
L 335.890836 224.402502 
L 338.279599 208.350938 
L 339.47398 231.281744 
L 340.668361 211.790559 
L 341.862742 219.816341 
L 343.057124 216.37672 
L 344.251505 214.08364 
L 345.445886 206.057858 
L 346.640268 235.867905 
L 347.834649 230.135204 
L 349.02903 210.644019 
L 350.223411 232.428284 
L 351.417793 219.816341 
L 352.612174 239.307526 
L 353.806555 233.574825 
L 355.000936 231.281744 
L 356.195318 223.255962 
L 357.389699 211.790559 
L 358.58408 218.669801 
L 359.778462 208.350938 
L 360.972843 223.255962 
L 362.167224 206.057858 
L 363.361605 195.738995 
L 364.555987 178.540891 
L 365.750368 212.9371 
L 366.944749 219.816341 
L 368.13913 208.350938 
L 369.333512 211.790559 
L 370.527893 203.764777 
L 371.722274 201.471697 
L 372.916656 219.816341 
L 374.111037 211.790559 
L 375.305418 206.057858 
L 376.499799 215.23018 
L 377.694181 248.479848 
L 378.888562 179.687431 
L 380.082943 201.471697 
L 381.277324 201.471697 
L 382.471706 217.523261 
L 383.666087 207.204398 
L 384.860468 225.549043 
L 386.054849 228.988664 
L 387.249231 238.160986 
L 388.443612 216.37672 
L 389.637993 226.695583 
L 390.832375 223.255962 
L 392.026756 210.644019 
L 393.221137 200.325156 
L 394.415518 208.350938 
L 395.6099 201.471697 
L 396.804281 220.962882 
L 397.998662 192.299374 
L 399.193043 209.497479 
L 400.387425 194.592455 
L 402.776187 228.988664 
L 403.970569 232.428284 
L 405.16495 220.962882 
L 406.359331 201.471697 
L 407.553712 217.523261 
L 408.748094 165.928948 
L 409.942475 199.178616 
L 411.136856 191.152834 
L 412.331237 190.006294 
L 413.525619 204.911318 
L 414.72 192.299374 
L 414.72 192.299374 
" style="fill:none;stroke:#1f77b4;stroke-linecap:square;stroke-width:1.5;"/>
   </g>
   <g id="line2d_13">
    <path clip-path="url(#p1e96bf9ca5)" d="M 58.794381 294.985438 
L 59.988763 293.016912 
L 61.183144 291.54195 
L 63.571906 287.203464 
L 68.349431 280.159391 
L 70.738194 275.752942 
L 73.126957 272.198566 
L 75.515719 268.688575 
L 76.7101 266.870004 
L 77.904482 264.686586 
L 80.293244 259.950738 
L 81.487625 258.093768 
L 82.682007 256.496244 
L 83.876388 254.53951 
L 85.070769 252.270969 
L 86.265151 250.397499 
L 88.653913 245.803593 
L 89.848294 243.817397 
L 91.042676 241.422015 
L 92.237057 239.281293 
L 93.431438 237.401364 
L 97.014582 230.669364 
L 98.208963 228.151004 
L 99.403344 226.178008 
L 100.597726 223.688886 
L 101.792107 221.709367 
L 102.986488 219.099121 
L 105.375251 214.895405 
L 107.764013 211.065303 
L 108.958395 209.266977 
L 110.152776 207.77721 
L 112.541538 204.080341 
L 114.930301 199.76708 
L 117.319064 196.361864 
L 119.707826 193.277285 
L 120.902207 191.428188 
L 123.29097 186.997417 
L 126.874114 181.0715 
L 130.457258 175.444643 
L 134.040401 169.159704 
L 138.817926 161.999396 
L 140.012308 160.346435 
L 141.206689 158.427416 
L 143.595452 155.195473 
L 144.789833 153.896881 
L 148.372977 148.905792 
L 150.761739 146.018183 
L 151.95612 145.105046 
L 153.150502 143.865964 
L 155.539264 141.046971 
L 156.733645 139.899361 
L 161.511171 143.69318 
L 166.288696 147.221966 
L 171.066221 150.518414 
L 177.038127 154.352687 
L 183.010033 157.908358 
L 188.98194 161.220116 
L 196.148227 164.912104 
L 203.314515 168.334216 
L 210.480803 171.51954 
L 218.841472 174.972776 
L 227.20214 178.176838 
L 235.562809 181.161423 
L 245.11786 184.335242 
L 254.67291 187.285525 
L 265.422341 190.369254 
L 276.171773 193.233038 
L 288.115585 196.187855 
L 301.253779 199.19529 
L 314.391973 201.979284 
L 328.724548 204.7927 
L 344.251505 207.609406 
L 360.972843 210.407554 
L 378.888562 213.16929 
L 397.998662 215.880358 
L 414.72 218.078061 
L 414.72 218.078061 
" style="fill:none;stroke:#ff7f0e;stroke-linecap:square;stroke-width:1.5;"/>
   </g>
   <g id="line2d_14">
    <path clip-path="url(#p1e96bf9ca5)" d="M 347.834649 307.584 
L 347.834649 41.472 
" style="fill:none;stroke:#ff0000;stroke-dasharray:5.55,2.4;stroke-dashoffset:0;stroke-width:1.5;"/>
   </g>
   <g id="patch_3">
    <path d="M 57.6 307.584 
L 57.6 41.472 
" style="fill:none;stroke:#000000;stroke-linecap:square;stroke-linejoin:miter;stroke-width:0.8;"/>
   </g>
   <g id="patch_4">
    <path d="M 414.72 307.584 
L 414.72 41.472 
" style="fill:none;stroke:#000000;stroke-linecap:square;stroke-linejoin:miter;stroke-width:0.8;"/>
   </g>
   <g id="patch_5">
    <path d="M 57.6 307.584 
L 414.72 307.584 
" style="fill:none;stroke:#000000;stroke-linecap:square;stroke-linejoin:miter;stroke-width:0.8;"/>
   </g>
   <g id="patch_6">
    <path d="M 57.6 41.472 
L 414.72 41.472 
" style="fill:none;stroke:#000000;stroke-linecap:square;stroke-linejoin:miter;stroke-width:0.8;"/>
   </g>
   <g id="text_14">
    <!-- Tracking Daily Transactions -->
    <defs>
     <path d="M 9.078125 75.984375 
L 18.109375 75.984375 
L 18.109375 31.109375 
L 44.921875 54.6875 
L 56.390625 54.6875 
L 27.390625 29.109375 
L 57.625 0 
L 45.90625 0 
L 18.109375 26.703125 
L 18.109375 0 
L 9.078125 0 
z
" id="DejaVuSans-6b"/>
     <path d="M 45.40625 27.984375 
Q 45.40625 37.75 41.375 43.109375 
Q 37.359375 48.484375 30.078125 48.484375 
Q 22.859375 48.484375 18.828125 43.109375 
Q 14.796875 37.75 14.796875 27.984375 
Q 14.796875 18.265625 18.828125 12.890625 
Q 22.859375 7.515625 30.078125 7.515625 
Q 37.359375 7.515625 41.375 12.890625 
Q 45.40625 18.265625 45.40625 27.984375 
z
M 54.390625 6.78125 
Q 54.390625 -7.171875 48.1875 -13.984375 
Q 42 -20.796875 29.203125 -20.796875 
Q 24.46875 -20.796875 20.265625 -20.09375 
Q 16.0625 -19.390625 12.109375 -17.921875 
L 12.109375 -9.1875 
Q 16.0625 -11.328125 19.921875 -12.34375 
Q 23.78125 -13.375 27.78125 -13.375 
Q 36.625 -13.375 41.015625 -8.765625 
Q 45.40625 -4.15625 45.40625 5.171875 
L 45.40625 9.625 
Q 42.625 4.78125 38.28125 2.390625 
Q 33.9375 0 27.875 0 
Q 17.828125 0 11.671875 7.65625 
Q 5.515625 15.328125 5.515625 27.984375 
Q 5.515625 40.671875 11.671875 48.328125 
Q 17.828125 56 27.875 56 
Q 33.9375 56 38.28125 53.609375 
Q 42.625 51.21875 45.40625 46.390625 
L 45.40625 54.6875 
L 54.390625 54.6875 
z
" id="DejaVuSans-67"/>
     <path id="DejaVuSans-20"/>
     <path d="M 19.671875 64.796875 
L 19.671875 8.109375 
L 31.59375 8.109375 
Q 46.6875 8.109375 53.6875 14.9375 
Q 60.6875 21.78125 60.6875 36.53125 
Q 60.6875 51.171875 53.6875 57.984375 
Q 46.6875 64.796875 31.59375 64.796875 
z
M 9.8125 72.90625 
L 30.078125 72.90625 
Q 51.265625 72.90625 61.171875 64.09375 
Q 71.09375 55.28125 71.09375 36.53125 
Q 71.09375 17.671875 61.125 8.828125 
Q 51.171875 0 30.078125 0 
L 9.8125 0 
z
" id="DejaVuSans-44"/>
     <path d="M 9.421875 75.984375 
L 18.40625 75.984375 
L 18.40625 0 
L 9.421875 0 
z
" id="DejaVuSans-6c"/>
    </defs>
    <g transform="translate(153 35.472)scale(0.12 -0.12)">
     <use xlink:href="#DejaVuSans-54"/>
     <use x="60.865234" xlink:href="#DejaVuSans-72"/>
     <use x="101.978516" xlink:href="#DejaVuSans-61"/>
     <use x="163.257812" xlink:href="#DejaVuSans-63"/>
     <use x="218.238281" xlink:href="#DejaVuSans-6b"/>
     <use x="276.148438" xlink:href="#DejaVuSans-69"/>
     <use x="303.931641" xlink:href="#DejaVuSans-6e"/>
     <use x="367.310547" xlink:href="#DejaVuSans-67"/>
     <use x="430.787109" xlink:href="#DejaVuSans-20"/>
     <use x="462.574219" xlink:href="#DejaVuSans-44"/>
     <use x="539.576172" xlink:href="#DejaVuSans-61"/>
     <use x="600.855469" xlink:href="#DejaVuSans-69"/>
     <use x="628.638672" xlink:href="#DejaVuSans-6c"/>
     <use x="656.421875" xlink:href="#DejaVuSans-79"/>
     <use x="715.601562" xlink:href="#DejaVuSans-20"/>
     <use x="747.388672" xlink:href="#DejaVuSans-54"/>
     <use x="808.253906" xlink:href="#DejaVuSans-72"/>
     <use x="849.367188" xlink:href="#DejaVuSans-61"/>
     <use x="910.646484" xlink:href="#DejaVuSans-6e"/>
     <use x="974.025391" xlink:href="#DejaVuSans-73"/>
     <use x="1026.125" xlink:href="#DejaVuSans-61"/>
     <use x="1087.404297" xlink:href="#DejaVuSans-63"/>
     <use x="1142.384766" xlink:href="#DejaVuSans-74"/>
     <use x="1181.59375" xlink:href="#DejaVuSans-69"/>
     <use x="1209.376953" xlink:href="#DejaVuSans-6f"/>
     <use x="1270.558594" xlink:href="#DejaVuSans-6e"/>
     <use x="1333.9375" xlink:href="#DejaVuSans-73"/>
    </g>
   </g>
   <g id="legend_1">
    <g id="patch_7">
     <path d="M 64.6 78.82825 
L 144.25625 78.82825 
Q 146.25625 78.82825 146.25625 76.82825 
L 146.25625 48.472 
Q 146.25625 46.472 144.25625 46.472 
L 64.6 46.472 
Q 62.6 46.472 62.6 48.472 
L 62.6 76.82825 
Q 62.6 78.82825 64.6 78.82825 
z
" style="fill:#ffffff;opacity:0.8;stroke:#cccccc;stroke-linejoin:miter;"/>
    </g>
    <g id="line2d_15">
     <path d="M 66.6 54.570437 
L 86.6 54.570437 
" style="fill:none;stroke:#1f77b4;stroke-linecap:square;stroke-width:1.5;"/>
    </g>
    <g id="line2d_16"/>
    <g id="text_15">
     <!-- actual -->
     <defs>
      <path d="M 8.5 21.578125 
L 8.5 54.6875 
L 17.484375 54.6875 
L 17.484375 21.921875 
Q 17.484375 14.15625 20.5 10.265625 
Q 23.53125 6.390625 29.59375 6.390625 
Q 36.859375 6.390625 41.078125 11.03125 
Q 45.3125 15.671875 45.3125 23.6875 
L 45.3125 54.6875 
L 54.296875 54.6875 
L 54.296875 0 
L 45.3125 0 
L 45.3125 8.40625 
Q 42.046875 3.421875 37.71875 1 
Q 33.40625 -1.421875 27.6875 -1.421875 
Q 18.265625 -1.421875 13.375 4.4375 
Q 8.5 10.296875 8.5 21.578125 
z
M 31.109375 56 
z
" id="DejaVuSans-75"/>
     </defs>
     <g transform="translate(94.6 58.070437)scale(0.1 -0.1)">
      <use xlink:href="#DejaVuSans-61"/>
      <use x="61.279297" xlink:href="#DejaVuSans-63"/>
      <use x="116.259766" xlink:href="#DejaVuSans-74"/>
      <use x="155.46875" xlink:href="#DejaVuSans-75"/>
      <use x="218.847656" xlink:href="#DejaVuSans-61"/>
      <use x="280.126953" xlink:href="#DejaVuSans-6c"/>
     </g>
    </g>
    <g id="line2d_17">
     <path d="M 66.6 69.248562 
L 86.6 69.248562 
" style="fill:none;stroke:#ff7f0e;stroke-linecap:square;stroke-width:1.5;"/>
    </g>
    <g id="line2d_18"/>
    <g id="text_16">
     <!-- predicted -->
     <defs>
      <path d="M 18.109375 8.203125 
L 18.109375 -20.796875 
L 9.078125 -20.796875 
L 9.078125 54.6875 
L 18.109375 54.6875 
L 18.109375 46.390625 
Q 20.953125 51.265625 25.265625 53.625 
Q 29.59375 56 35.59375 56 
Q 45.5625 56 51.78125 48.09375 
Q 58.015625 40.1875 58.015625 27.296875 
Q 58.015625 14.40625 51.78125 6.484375 
Q 45.5625 -1.421875 35.59375 -1.421875 
Q 29.59375 -1.421875 25.265625 0.953125 
Q 20.953125 3.328125 18.109375 8.203125 
z
M 48.6875 27.296875 
Q 48.6875 37.203125 44.609375 42.84375 
Q 40.53125 48.484375 33.40625 48.484375 
Q 26.265625 48.484375 22.1875 42.84375 
Q 18.109375 37.203125 18.109375 27.296875 
Q 18.109375 17.390625 22.1875 11.75 
Q 26.265625 6.109375 33.40625 6.109375 
Q 40.53125 6.109375 44.609375 11.75 
Q 48.6875 17.390625 48.6875 27.296875 
z
" id="DejaVuSans-70"/>
      <path d="M 56.203125 29.59375 
L 56.203125 25.203125 
L 14.890625 25.203125 
Q 15.484375 15.921875 20.484375 11.0625 
Q 25.484375 6.203125 34.421875 6.203125 
Q 39.59375 6.203125 44.453125 7.46875 
Q 49.3125 8.734375 54.109375 11.28125 
L 54.109375 2.78125 
Q 49.265625 0.734375 44.1875 -0.34375 
Q 39.109375 -1.421875 33.890625 -1.421875 
Q 20.796875 -1.421875 13.15625 6.1875 
Q 5.515625 13.8125 5.515625 26.8125 
Q 5.515625 40.234375 12.765625 48.109375 
Q 20.015625 56 32.328125 56 
Q 43.359375 56 49.78125 48.890625 
Q 56.203125 41.796875 56.203125 29.59375 
z
M 47.21875 32.234375 
Q 47.125 39.59375 43.09375 43.984375 
Q 39.0625 48.390625 32.421875 48.390625 
Q 24.90625 48.390625 20.390625 44.140625 
Q 15.875 39.890625 15.1875 32.171875 
z
" id="DejaVuSans-65"/>
     </defs>
     <g transform="translate(94.6 72.748562)scale(0.1 -0.1)">
      <use xlink:href="#DejaVuSans-70"/>
      <use x="63.476562" xlink:href="#DejaVuSans-72"/>
      <use x="104.558594" xlink:href="#DejaVuSans-65"/>
      <use x="166.082031" xlink:href="#DejaVuSans-64"/>
      <use x="229.558594" xlink:href="#DejaVuSans-69"/>
      <use x="257.341797" xlink:href="#DejaVuSans-63"/>
      <use x="312.322266" xlink:href="#DejaVuSans-74"/>
      <use x="351.53125" xlink:href="#DejaVuSans-65"/>
      <use x="413.054688" xlink:href="#DejaVuSans-64"/>
     </g>
    </g>
   </g>
  </g>
 </g>
 <defs>
  <clipPath id="p1e96bf9ca5">
   <rect height="266.112" width="357.12" x="57.6" y="41.472"/>
  </clipPath>
 </defs>
</svg>
