<?xml version="1.0" encoding="utf-8" standalone="no"?>
<!DOCTYPE svg PUBLIC "-//W3C//DTD SVG 1.1//EN"
  "http://www.w3.org/Graphics/SVG/1.1/DTD/svg11.dtd">
<!-- Created with matplotlib (http://matplotlib.org/) -->
<svg height="345.6pt" version="1.1" viewBox="0 0 460.8 345.6" width="460.8pt" xmlns="http://www.w3.org/2000/svg" xmlns:xlink="http://www.w3.org/1999/xlink">
 <defs>
  <style type="text/css">
*{stroke-linecap:butt;stroke-linejoin:round;}
  </style>
 </defs>
 <g id="figure_1">
  <g id="patch_1">
   <path d="M 0 345.6 
L 460.8 345.6 
L 460.8 0 
L 0 0 
z
" style="fill:#ffffff;"/>
  </g>
  <g id="axes_1">
   <g id="patch_2">
    <path d="M 57.6 307.584 
L 414.72 307.584 
L 414.72 41.472 
L 57.6 41.472 
z
" style="fill:#ffffff;"/>
   </g>
   <g id="matplotlib.axis_1">
    <g id="xtick_1">
     <g id="line2d_1">
      <defs>
       <path d="M 0 0 
L 0 3.5 
" id="mdaa5a0aa47" style="stroke:#000000;stroke-width:0.8;"/>
      </defs>
      <g>
       <use style="stroke:#000000;stroke-width:0.8;" x="57.6" xlink:href="#mdaa5a0aa47" y="307.584"/>
      </g>
     </g>
     <g id="text_1">
      <!-- 0 -->
      <defs>
       <path d="M 31.78125 66.40625 
Q 24.171875 66.40625 20.328125 58.90625 
Q 16.5 51.421875 16.5 36.375 
Q 16.5 21.390625 20.328125 13.890625 
Q 24.171875 6.390625 31.78125 6.390625 
Q 39.453125 6.390625 43.28125 13.890625 
Q 47.125 21.390625 47.125 36.375 
Q 47.125 51.421875 43.28125 58.90625 
Q 39.453125 66.40625 31.78125 66.40625 
z
M 31.78125 74.21875 
Q 44.046875 74.21875 50.515625 64.515625 
Q 56.984375 54.828125 56.984375 36.375 
Q 56.984375 17.96875 50.515625 8.265625 
Q 44.046875 -1.421875 31.78125 -1.421875 
Q 19.53125 -1.421875 13.0625 8.265625 
Q 6.59375 17.96875 6.59375 36.375 
Q 6.59375 54.828125 13.0625 64.515625 
Q 19.53125 74.21875 31.78125 74.21875 
z
" id="DejaVuSans-30"/>
      </defs>
      <g transform="translate(54.41875 322.182437)scale(0.1 -0.1)">
       <use xlink:href="#DejaVuSans-30"/>
      </g>
     </g>
    </g>
    <g id="xtick_2">
     <g id="line2d_2">
      <g>
       <use style="stroke:#000000;stroke-width:0.8;" x="117.319064" xlink:href="#mdaa5a0aa47" y="307.584"/>
      </g>
     </g>
     <g id="text_2">
      <!-- 50 -->
      <defs>
       <path d="M 10.796875 72.90625 
L 49.515625 72.90625 
L 49.515625 64.59375 
L 19.828125 64.59375 
L 19.828125 46.734375 
Q 21.96875 47.46875 24.109375 47.828125 
Q 26.265625 48.1875 28.421875 48.1875 
Q 40.625 48.1875 47.75 41.5 
Q 54.890625 34.8125 54.890625 23.390625 
Q 54.890625 11.625 47.5625 5.09375 
Q 40.234375 -1.421875 26.90625 -1.421875 
Q 22.3125 -1.421875 17.546875 -0.640625 
Q 12.796875 0.140625 7.71875 1.703125 
L 7.71875 11.625 
Q 12.109375 9.234375 16.796875 8.0625 
Q 21.484375 6.890625 26.703125 6.890625 
Q 35.15625 6.890625 40.078125 11.328125 
Q 45.015625 15.765625 45.015625 23.390625 
Q 45.015625 31 40.078125 35.4375 
Q 35.15625 39.890625 26.703125 39.890625 
Q 22.75 39.890625 18.8125 39.015625 
Q 14.890625 38.140625 10.796875 36.28125 
z
" id="DejaVuSans-35"/>
      </defs>
      <g transform="translate(110.956564 322.182437)scale(0.1 -0.1)">
       <use xlink:href="#DejaVuSans-35"/>
       <use x="63.623047" xlink:href="#DejaVuSans-30"/>
      </g>
     </g>
    </g>
    <g id="xtick_3">
     <g id="line2d_3">
      <g>
       <use style="stroke:#000000;stroke-width:0.8;" x="177.038127" xlink:href="#mdaa5a0aa47" y="307.584"/>
      </g>
     </g>
     <g id="text_3">
      <!-- 100 -->
      <defs>
       <path d="M 12.40625 8.296875 
L 28.515625 8.296875 
L 28.515625 63.921875 
L 10.984375 60.40625 
L 10.984375 69.390625 
L 28.421875 72.90625 
L 38.28125 72.90625 
L 38.28125 8.296875 
L 54.390625 8.296875 
L 54.390625 0 
L 12.40625 0 
z
" id="DejaVuSans-31"/>
      </defs>
      <g transform="translate(167.494377 322.182437)scale(0.1 -0.1)">
       <use xlink:href="#DejaVuSans-31"/>
       <use x="63.623047" xlink:href="#DejaVuSans-30"/>
       <use x="127.246094" xlink:href="#DejaVuSans-30"/>
      </g>
     </g>
    </g>
    <g id="xtick_4">
     <g id="line2d_4">
      <g>
       <use style="stroke:#000000;stroke-width:0.8;" x="236.757191" xlink:href="#mdaa5a0aa47" y="307.584"/>
      </g>
     </g>
     <g id="text_4">
      <!-- 150 -->
      <g transform="translate(227.213441 322.182437)scale(0.1 -0.1)">
       <use xlink:href="#DejaVuSans-31"/>
       <use x="63.623047" xlink:href="#DejaVuSans-35"/>
       <use x="127.246094" xlink:href="#DejaVuSans-30"/>
      </g>
     </g>
    </g>
    <g id="xtick_5">
     <g id="line2d_5">
      <g>
       <use style="stroke:#000000;stroke-width:0.8;" x="296.476254" xlink:href="#mdaa5a0aa47" y="307.584"/>
      </g>
     </g>
     <g id="text_5">
      <!-- 200 -->
      <defs>
       <path d="M 19.1875 8.296875 
L 53.609375 8.296875 
L 53.609375 0 
L 7.328125 0 
L 7.328125 8.296875 
Q 12.9375 14.109375 22.625 23.890625 
Q 32.328125 33.6875 34.8125 36.53125 
Q 39.546875 41.84375 41.421875 45.53125 
Q 43.3125 49.21875 43.3125 52.78125 
Q 43.3125 58.59375 39.234375 62.25 
Q 35.15625 65.921875 28.609375 65.921875 
Q 23.96875 65.921875 18.8125 64.3125 
Q 13.671875 62.703125 7.8125 59.421875 
L 7.8125 69.390625 
Q 13.765625 71.78125 18.9375 73 
Q 24.125 74.21875 28.421875 74.21875 
Q 39.75 74.21875 46.484375 68.546875 
Q 53.21875 62.890625 53.21875 53.421875 
Q 53.21875 48.921875 51.53125 44.890625 
Q 49.859375 40.875 45.40625 35.40625 
Q 44.1875 33.984375 37.640625 27.21875 
Q 31.109375 20.453125 19.1875 8.296875 
z
" id="DejaVuSans-32"/>
      </defs>
      <g transform="translate(286.932504 322.182437)scale(0.1 -0.1)">
       <use xlink:href="#DejaVuSans-32"/>
       <use x="63.623047" xlink:href="#DejaVuSans-30"/>
       <use x="127.246094" xlink:href="#DejaVuSans-30"/>
      </g>
     </g>
    </g>
    <g id="xtick_6">
     <g id="line2d_6">
      <g>
       <use style="stroke:#000000;stroke-width:0.8;" x="356.195318" xlink:href="#mdaa5a0aa47" y="307.584"/>
      </g>
     </g>
     <g id="text_6">
      <!-- 250 -->
      <g transform="translate(346.651568 322.182437)scale(0.1 -0.1)">
       <use xlink:href="#DejaVuSans-32"/>
       <use x="63.623047" xlink:href="#DejaVuSans-35"/>
       <use x="127.246094" xlink:href="#DejaVuSans-30"/>
      </g>
     </g>
    </g>
    <g id="text_7">
     <!-- day -->
     <defs>
      <path d="M 45.40625 46.390625 
L 45.40625 75.984375 
L 54.390625 75.984375 
L 54.390625 0 
L 45.40625 0 
L 45.40625 8.203125 
Q 42.578125 3.328125 38.25 0.953125 
Q 33.9375 -1.421875 27.875 -1.421875 
Q 17.96875 -1.421875 11.734375 6.484375 
Q 5.515625 14.40625 5.515625 27.296875 
Q 5.515625 40.1875 11.734375 48.09375 
Q 17.96875 56 27.875 56 
Q 33.9375 56 38.25 53.625 
Q 42.578125 51.265625 45.40625 46.390625 
z
M 14.796875 27.296875 
Q 14.796875 17.390625 18.875 11.75 
Q 22.953125 6.109375 30.078125 6.109375 
Q 37.203125 6.109375 41.296875 11.75 
Q 45.40625 17.390625 45.40625 27.296875 
Q 45.40625 37.203125 41.296875 42.84375 
Q 37.203125 48.484375 30.078125 48.484375 
Q 22.953125 48.484375 18.875 42.84375 
Q 14.796875 37.203125 14.796875 27.296875 
z
" id="DejaVuSans-64"/>
      <path d="M 34.28125 27.484375 
Q 23.390625 27.484375 19.1875 25 
Q 14.984375 22.515625 14.984375 16.5 
Q 14.984375 11.71875 18.140625 8.90625 
Q 21.296875 6.109375 26.703125 6.109375 
Q 34.1875 6.109375 38.703125 11.40625 
Q 43.21875 16.703125 43.21875 25.484375 
L 43.21875 27.484375 
z
M 52.203125 31.203125 
L 52.203125 0 
L 43.21875 0 
L 43.21875 8.296875 
Q 40.140625 3.328125 35.546875 0.953125 
Q 30.953125 -1.421875 24.3125 -1.421875 
Q 15.921875 -1.421875 10.953125 3.296875 
Q 6 8.015625 6 15.921875 
Q 6 25.140625 12.171875 29.828125 
Q 18.359375 34.515625 30.609375 34.515625 
L 43.21875 34.515625 
L 43.21875 35.40625 
Q 43.21875 41.609375 39.140625 45 
Q 35.0625 48.390625 27.6875 48.390625 
Q 23 48.390625 18.546875 47.265625 
Q 14.109375 46.140625 10.015625 43.890625 
L 10.015625 52.203125 
Q 14.9375 54.109375 19.578125 55.046875 
Q 24.21875 56 28.609375 56 
Q 40.484375 56 46.34375 49.84375 
Q 52.203125 43.703125 52.203125 31.203125 
z
" id="DejaVuSans-61"/>
      <path d="M 32.171875 -5.078125 
Q 28.375 -14.84375 24.75 -17.8125 
Q 21.140625 -20.796875 15.09375 -20.796875 
L 7.90625 -20.796875 
L 7.90625 -13.28125 
L 13.1875 -13.28125 
Q 16.890625 -13.28125 18.9375 -11.515625 
Q 21 -9.765625 23.484375 -3.21875 
L 25.09375 0.875 
L 2.984375 54.6875 
L 12.5 54.6875 
L 29.59375 11.921875 
L 46.6875 54.6875 
L 56.203125 54.6875 
z
" id="DejaVuSans-79"/>
     </defs>
     <g transform="translate(226.962344 335.860562)scale(0.1 -0.1)">
      <use xlink:href="#DejaVuSans-64"/>
      <use x="63.476562" xlink:href="#DejaVuSans-61"/>
      <use x="124.755859" xlink:href="#DejaVuSans-79"/>
     </g>
    </g>
   </g>
   <g id="matplotlib.axis_2">
    <g id="ytick_1">
     <g id="line2d_7">
      <defs>
       <path d="M 0 0 
L -3.5 0 
" id="m0fbb7a59e2" style="stroke:#000000;stroke-width:0.8;"/>
      </defs>
      <g>
       <use style="stroke:#000000;stroke-width:0.8;" x="57.6" xlink:href="#m0fbb7a59e2" y="299.732211"/>
      </g>
     </g>
     <g id="text_8">
      <!-- 0 -->
      <g transform="translate(44.2375 303.531429)scale(0.1 -0.1)">
       <use xlink:href="#DejaVuSans-30"/>
      </g>
     </g>
    </g>
    <g id="ytick_2">
     <g id="line2d_8">
      <g>
       <use style="stroke:#000000;stroke-width:0.8;" x="57.6" xlink:href="#m0fbb7a59e2" y="257.290105"/>
      </g>
     </g>
     <g id="text_9">
      <!-- 10 -->
      <g transform="translate(37.875 261.089324)scale(0.1 -0.1)">
       <use xlink:href="#DejaVuSans-31"/>
       <use x="63.623047" xlink:href="#DejaVuSans-30"/>
      </g>
     </g>
    </g>
    <g id="ytick_3">
     <g id="line2d_9">
      <g>
       <use style="stroke:#000000;stroke-width:0.8;" x="57.6" xlink:href="#m0fbb7a59e2" y="214.848"/>
      </g>
     </g>
     <g id="text_10">
      <!-- 20 -->
      <g transform="translate(37.875 218.647219)scale(0.1 -0.1)">
       <use xlink:href="#DejaVuSans-32"/>
       <use x="63.623047" xlink:href="#DejaVuSans-30"/>
      </g>
     </g>
    </g>
    <g id="ytick_4">
     <g id="line2d_10">
      <g>
       <use style="stroke:#000000;stroke-width:0.8;" x="57.6" xlink:href="#m0fbb7a59e2" y="172.405895"/>
      </g>
     </g>
     <g id="text_11">
      <!-- 30 -->
      <defs>
       <path d="M 40.578125 39.3125 
Q 47.65625 37.796875 51.625 33 
Q 55.609375 28.21875 55.609375 21.1875 
Q 55.609375 10.40625 48.1875 4.484375 
Q 40.765625 -1.421875 27.09375 -1.421875 
Q 22.515625 -1.421875 17.65625 -0.515625 
Q 12.796875 0.390625 7.625 2.203125 
L 7.625 11.71875 
Q 11.71875 9.328125 16.59375 8.109375 
Q 21.484375 6.890625 26.8125 6.890625 
Q 36.078125 6.890625 40.9375 10.546875 
Q 45.796875 14.203125 45.796875 21.1875 
Q 45.796875 27.640625 41.28125 31.265625 
Q 36.765625 34.90625 28.71875 34.90625 
L 20.21875 34.90625 
L 20.21875 43.015625 
L 29.109375 43.015625 
Q 36.375 43.015625 40.234375 45.921875 
Q 44.09375 48.828125 44.09375 54.296875 
Q 44.09375 59.90625 40.109375 62.90625 
Q 36.140625 65.921875 28.71875 65.921875 
Q 24.65625 65.921875 20.015625 65.03125 
Q 15.375 64.15625 9.8125 62.3125 
L 9.8125 71.09375 
Q 15.4375 72.65625 20.34375 73.4375 
Q 25.25 74.21875 29.59375 74.21875 
Q 40.828125 74.21875 47.359375 69.109375 
Q 53.90625 64.015625 53.90625 55.328125 
Q 53.90625 49.265625 50.4375 45.09375 
Q 46.96875 40.921875 40.578125 39.3125 
z
" id="DejaVuSans-33"/>
      </defs>
      <g transform="translate(37.875 176.205113)scale(0.1 -0.1)">
       <use xlink:href="#DejaVuSans-33"/>
       <use x="63.623047" xlink:href="#DejaVuSans-30"/>
      </g>
     </g>
    </g>
    <g id="ytick_5">
     <g id="line2d_11">
      <g>
       <use style="stroke:#000000;stroke-width:0.8;" x="57.6" xlink:href="#m0fbb7a59e2" y="129.963789"/>
      </g>
     </g>
     <g id="text_12">
      <!-- 40 -->
      <defs>
       <path d="M 37.796875 64.3125 
L 12.890625 25.390625 
L 37.796875 25.390625 
z
M 35.203125 72.90625 
L 47.609375 72.90625 
L 47.609375 25.390625 
L 58.015625 25.390625 
L 58.015625 17.1875 
L 47.609375 17.1875 
L 47.609375 0 
L 37.796875 0 
L 37.796875 17.1875 
L 4.890625 17.1875 
L 4.890625 26.703125 
z
" id="DejaVuSans-34"/>
      </defs>
      <g transform="translate(37.875 133.763008)scale(0.1 -0.1)">
       <use xlink:href="#DejaVuSans-34"/>
       <use x="63.623047" xlink:href="#DejaVuSans-30"/>
      </g>
     </g>
    </g>
    <g id="ytick_6">
     <g id="line2d_12">
      <g>
       <use style="stroke:#000000;stroke-width:0.8;" x="57.6" xlink:href="#m0fbb7a59e2" y="87.521684"/>
      </g>
     </g>
     <g id="text_13">
      <!-- 50 -->
      <g transform="translate(37.875 91.320903)scale(0.1 -0.1)">
       <use xlink:href="#DejaVuSans-35"/>
       <use x="63.623047" xlink:href="#DejaVuSans-30"/>
      </g>
     </g>
    </g>
    <g id="ytick_7">
     <g id="line2d_13">
      <g>
       <use style="stroke:#000000;stroke-width:0.8;" x="57.6" xlink:href="#m0fbb7a59e2" y="45.079579"/>
      </g>
     </g>
     <g id="text_14">
      <!-- 60 -->
      <defs>
       <path d="M 33.015625 40.375 
Q 26.375 40.375 22.484375 35.828125 
Q 18.609375 31.296875 18.609375 23.390625 
Q 18.609375 15.53125 22.484375 10.953125 
Q 26.375 6.390625 33.015625 6.390625 
Q 39.65625 6.390625 43.53125 10.953125 
Q 47.40625 15.53125 47.40625 23.390625 
Q 47.40625 31.296875 43.53125 35.828125 
Q 39.65625 40.375 33.015625 40.375 
z
M 52.59375 71.296875 
L 52.59375 62.3125 
Q 48.875 64.0625 45.09375 64.984375 
Q 41.3125 65.921875 37.59375 65.921875 
Q 27.828125 65.921875 22.671875 59.328125 
Q 17.53125 52.734375 16.796875 39.40625 
Q 19.671875 43.65625 24.015625 45.921875 
Q 28.375 48.1875 33.59375 48.1875 
Q 44.578125 48.1875 50.953125 41.515625 
Q 57.328125 34.859375 57.328125 23.390625 
Q 57.328125 12.15625 50.6875 5.359375 
Q 44.046875 -1.421875 33.015625 -1.421875 
Q 20.359375 -1.421875 13.671875 8.265625 
Q 6.984375 17.96875 6.984375 36.375 
Q 6.984375 53.65625 15.1875 63.9375 
Q 23.390625 74.21875 37.203125 74.21875 
Q 40.921875 74.21875 44.703125 73.484375 
Q 48.484375 72.75 52.59375 71.296875 
z
" id="DejaVuSans-36"/>
      </defs>
      <g transform="translate(37.875 48.878798)scale(0.1 -0.1)">
       <use xlink:href="#DejaVuSans-36"/>
       <use x="63.623047" xlink:href="#DejaVuSans-30"/>
      </g>
     </g>
    </g>
    <g id="text_15">
     <!-- Transactions -->
     <defs>
      <path d="M -0.296875 72.90625 
L 61.375 72.90625 
L 61.375 64.59375 
L 35.5 64.59375 
L 35.5 0 
L 25.59375 0 
L 25.59375 64.59375 
L -0.296875 64.59375 
z
" id="DejaVuSans-54"/>
      <path d="M 41.109375 46.296875 
Q 39.59375 47.171875 37.8125 47.578125 
Q 36.03125 48 33.890625 48 
Q 26.265625 48 22.1875 43.046875 
Q 18.109375 38.09375 18.109375 28.8125 
L 18.109375 0 
L 9.078125 0 
L 9.078125 54.6875 
L 18.109375 54.6875 
L 18.109375 46.1875 
Q 20.953125 51.171875 25.484375 53.578125 
Q 30.03125 56 36.53125 56 
Q 37.453125 56 38.578125 55.875 
Q 39.703125 55.765625 41.0625 55.515625 
z
" id="DejaVuSans-72"/>
      <path d="M 54.890625 33.015625 
L 54.890625 0 
L 45.90625 0 
L 45.90625 32.71875 
Q 45.90625 40.484375 42.875 44.328125 
Q 39.84375 48.1875 33.796875 48.1875 
Q 26.515625 48.1875 22.3125 43.546875 
Q 18.109375 38.921875 18.109375 30.90625 
L 18.109375 0 
L 9.078125 0 
L 9.078125 54.6875 
L 18.109375 54.6875 
L 18.109375 46.1875 
Q 21.34375 51.125 25.703125 53.5625 
Q 30.078125 56 35.796875 56 
Q 45.21875 56 50.046875 50.171875 
Q 54.890625 44.34375 54.890625 33.015625 
z
" id="DejaVuSans-6e"/>
      <path d="M 44.28125 53.078125 
L 44.28125 44.578125 
Q 40.484375 46.53125 36.375 47.5 
Q 32.28125 48.484375 27.875 48.484375 
Q 21.1875 48.484375 17.84375 46.4375 
Q 14.5 44.390625 14.5 40.28125 
Q 14.5 37.15625 16.890625 35.375 
Q 19.28125 33.59375 26.515625 31.984375 
L 29.59375 31.296875 
Q 39.15625 29.25 43.1875 25.515625 
Q 47.21875 21.78125 47.21875 15.09375 
Q 47.21875 7.46875 41.1875 3.015625 
Q 35.15625 -1.421875 24.609375 -1.421875 
Q 20.21875 -1.421875 15.453125 -0.5625 
Q 10.6875 0.296875 5.421875 2 
L 5.421875 11.28125 
Q 10.40625 8.6875 15.234375 7.390625 
Q 20.0625 6.109375 24.8125 6.109375 
Q 31.15625 6.109375 34.5625 8.28125 
Q 37.984375 10.453125 37.984375 14.40625 
Q 37.984375 18.0625 35.515625 20.015625 
Q 33.0625 21.96875 24.703125 23.78125 
L 21.578125 24.515625 
Q 13.234375 26.265625 9.515625 29.90625 
Q 5.8125 33.546875 5.8125 39.890625 
Q 5.8125 47.609375 11.28125 51.796875 
Q 16.75 56 26.8125 56 
Q 31.78125 56 36.171875 55.265625 
Q 40.578125 54.546875 44.28125 53.078125 
z
" id="DejaVuSans-73"/>
      <path d="M 48.78125 52.59375 
L 48.78125 44.1875 
Q 44.96875 46.296875 41.140625 47.34375 
Q 37.3125 48.390625 33.40625 48.390625 
Q 24.65625 48.390625 19.8125 42.84375 
Q 14.984375 37.3125 14.984375 27.296875 
Q 14.984375 17.28125 19.8125 11.734375 
Q 24.65625 6.203125 33.40625 6.203125 
Q 37.3125 6.203125 41.140625 7.25 
Q 44.96875 8.296875 48.78125 10.40625 
L 48.78125 2.09375 
Q 45.015625 0.34375 40.984375 -0.53125 
Q 36.96875 -1.421875 32.421875 -1.421875 
Q 20.0625 -1.421875 12.78125 6.34375 
Q 5.515625 14.109375 5.515625 27.296875 
Q 5.515625 40.671875 12.859375 48.328125 
Q 20.21875 56 33.015625 56 
Q 37.15625 56 41.109375 55.140625 
Q 45.0625 54.296875 48.78125 52.59375 
z
" id="DejaVuSans-63"/>
      <path d="M 18.3125 70.21875 
L 18.3125 54.6875 
L 36.8125 54.6875 
L 36.8125 47.703125 
L 18.3125 47.703125 
L 18.3125 18.015625 
Q 18.3125 11.328125 20.140625 9.421875 
Q 21.96875 7.515625 27.59375 7.515625 
L 36.8125 7.515625 
L 36.8125 0 
L 27.59375 0 
Q 17.1875 0 13.234375 3.875 
Q 9.28125 7.765625 9.28125 18.015625 
L 9.28125 47.703125 
L 2.6875 47.703125 
L 2.6875 54.6875 
L 9.28125 54.6875 
L 9.28125 70.21875 
z
" id="DejaVuSans-74"/>
      <path d="M 9.421875 54.6875 
L 18.40625 54.6875 
L 18.40625 0 
L 9.421875 0 
z
M 9.421875 75.984375 
L 18.40625 75.984375 
L 18.40625 64.59375 
L 9.421875 64.59375 
z
" id="DejaVuSans-69"/>
      <path d="M 30.609375 48.390625 
Q 23.390625 48.390625 19.1875 42.75 
Q 14.984375 37.109375 14.984375 27.296875 
Q 14.984375 17.484375 19.15625 11.84375 
Q 23.34375 6.203125 30.609375 6.203125 
Q 37.796875 6.203125 41.984375 11.859375 
Q 46.1875 17.53125 46.1875 27.296875 
Q 46.1875 37.015625 41.984375 42.703125 
Q 37.796875 48.390625 30.609375 48.390625 
z
M 30.609375 56 
Q 42.328125 56 49.015625 48.375 
Q 55.71875 40.765625 55.71875 27.296875 
Q 55.71875 13.875 49.015625 6.21875 
Q 42.328125 -1.421875 30.609375 -1.421875 
Q 18.84375 -1.421875 12.171875 6.21875 
Q 5.515625 13.875 5.515625 27.296875 
Q 5.515625 40.765625 12.171875 48.375 
Q 18.84375 56 30.609375 56 
z
" id="DejaVuSans-6f"/>
     </defs>
     <g transform="translate(31.795312 206.45925)rotate(-90)scale(0.1 -0.1)">
      <use xlink:href="#DejaVuSans-54"/>
      <use x="60.865234" xlink:href="#DejaVuSans-72"/>
      <use x="101.978516" xlink:href="#DejaVuSans-61"/>
      <use x="163.257812" xlink:href="#DejaVuSans-6e"/>
      <use x="226.636719" xlink:href="#DejaVuSans-73"/>
      <use x="278.736328" xlink:href="#DejaVuSans-61"/>
      <use x="340.015625" xlink:href="#DejaVuSans-63"/>
      <use x="394.996094" xlink:href="#DejaVuSans-74"/>
      <use x="434.205078" xlink:href="#DejaVuSans-69"/>
      <use x="461.988281" xlink:href="#DejaVuSans-6f"/>
      <use x="523.169922" xlink:href="#DejaVuSans-6e"/>
      <use x="586.548828" xlink:href="#DejaVuSans-73"/>
     </g>
    </g>
   </g>
   <g id="line2d_14">
    <path clip-path="url(#p57399d319d)" d="M 58.794381 295.488 
L 59.988763 282.755368 
L 61.183144 282.755368 
L 62.377525 278.511158 
L 63.571906 265.778526 
L 64.766288 270.022737 
L 65.960669 265.778526 
L 67.15505 257.290105 
L 68.349431 261.534316 
L 69.543813 248.801684 
L 70.738194 244.557474 
L 71.932575 248.801684 
L 73.126957 227.580632 
L 74.321338 240.313263 
L 75.515719 244.557474 
L 76.7101 261.534316 
L 77.904482 248.801684 
L 79.098863 227.580632 
L 80.293244 231.824842 
L 81.487625 227.580632 
L 82.682007 253.045895 
L 83.876388 214.848 
L 85.070769 253.045895 
L 86.265151 253.045895 
L 87.459532 248.801684 
L 88.653913 227.580632 
L 89.848294 244.557474 
L 91.042676 223.336421 
L 92.237057 244.557474 
L 93.431438 206.359579 
L 94.625819 227.580632 
L 95.820201 202.115368 
L 97.014582 219.092211 
L 98.208963 210.603789 
L 99.403344 231.824842 
L 100.597726 219.092211 
L 101.792107 189.382737 
L 102.986488 193.626947 
L 104.18087 227.580632 
L 105.375251 223.336421 
L 106.569632 202.115368 
L 107.764013 219.092211 
L 108.958395 214.848 
L 110.152776 227.580632 
L 111.347157 168.161684 
L 112.541538 189.382737 
L 113.73592 206.359579 
L 114.930301 244.557474 
L 116.124682 159.673263 
L 117.319064 206.359579 
L 118.513445 168.161684 
L 119.707826 163.917474 
L 120.902207 206.359579 
L 122.096589 227.580632 
L 123.29097 189.382737 
L 124.485351 227.580632 
L 125.679732 227.580632 
L 126.874114 193.626947 
L 128.068495 223.336421 
L 129.262876 163.917474 
L 130.457258 214.848 
L 131.651639 210.603789 
L 132.84602 197.871158 
L 134.040401 206.359579 
L 135.234783 176.650105 
L 136.429164 151.184842 
L 137.623545 172.405895 
L 138.817926 197.871158 
L 141.206689 189.382737 
L 142.40107 159.673263 
L 143.595452 155.429053 
L 144.789833 176.650105 
L 145.984214 163.917474 
L 147.178595 185.138526 
L 148.372977 193.626947 
L 150.761739 185.138526 
L 151.95612 142.696421 
L 153.150502 151.184842 
L 154.344883 172.405895 
L 155.539264 189.382737 
L 156.733645 223.336421 
L 157.928027 219.092211 
L 159.122408 185.138526 
L 160.316789 185.138526 
L 161.511171 172.405895 
L 162.705552 121.475368 
L 163.899933 155.429053 
L 165.094314 142.696421 
L 166.288696 159.673263 
L 168.677458 185.138526 
L 169.871839 176.650105 
L 171.066221 193.626947 
L 173.454983 176.650105 
L 174.649365 142.696421 
L 175.843746 223.336421 
L 177.038127 219.092211 
L 178.232508 159.673263 
L 179.42689 172.405895 
L 180.621271 176.650105 
L 181.815652 193.626947 
L 183.010033 176.650105 
L 184.204415 210.603789 
L 185.398796 151.184842 
L 186.593177 168.161684 
L 187.787559 202.115368 
L 188.98194 125.719579 
L 190.176321 168.161684 
L 191.370702 151.184842 
L 192.565084 138.452211 
L 193.759465 138.452211 
L 194.953846 129.963789 
L 196.148227 180.894316 
L 197.342609 193.626947 
L 198.53699 129.963789 
L 199.731371 125.719579 
L 200.925753 125.719579 
L 202.120134 163.917474 
L 203.314515 142.696421 
L 204.508896 138.452211 
L 205.703278 146.940632 
L 206.897659 129.963789 
L 208.09204 180.894316 
L 209.286421 138.452211 
L 210.480803 129.963789 
L 211.675184 159.673263 
L 212.869565 134.208 
L 214.063946 117.231158 
L 215.258328 172.405895 
L 216.452709 151.184842 
L 217.64709 172.405895 
L 220.035853 138.452211 
L 221.230234 176.650105 
L 222.424615 121.475368 
L 223.618997 104.498526 
L 224.813378 138.452211 
L 226.007759 142.696421 
L 227.20214 163.917474 
L 228.396522 151.184842 
L 229.590903 134.208 
L 230.785284 138.452211 
L 231.979666 193.626947 
L 233.174047 176.650105 
L 234.368428 168.161684 
L 235.562809 117.231158 
L 236.757191 87.521684 
L 237.951572 117.231158 
L 239.145953 172.405895 
L 240.340334 185.138526 
L 241.534716 142.696421 
L 242.729097 151.184842 
L 243.923478 138.452211 
L 245.11786 159.673263 
L 246.312241 168.161684 
L 247.506622 189.382737 
L 248.701003 151.184842 
L 249.895385 151.184842 
L 251.089766 129.963789 
L 252.284147 155.429053 
L 253.478528 155.429053 
L 254.67291 146.940632 
L 255.867291 180.894316 
L 257.061672 202.115368 
L 259.450435 96.010105 
L 260.644816 159.673263 
L 261.839197 163.917474 
L 263.033579 125.719579 
L 264.22796 176.650105 
L 265.422341 134.208 
L 266.616722 185.138526 
L 267.811104 172.405895 
L 269.005485 206.359579 
L 270.199866 138.452211 
L 271.394247 155.429053 
L 272.588629 146.940632 
L 273.78301 121.475368 
L 274.977391 146.940632 
L 276.171773 168.161684 
L 277.366154 163.917474 
L 278.560535 138.452211 
L 279.754916 117.231158 
L 280.949298 87.521684 
L 282.143679 155.429053 
L 283.33806 151.184842 
L 284.532441 74.789053 
L 285.726823 96.010105 
L 286.921204 129.963789 
L 288.115585 134.208 
L 289.309967 121.475368 
L 290.504348 176.650105 
L 291.698729 121.475368 
L 292.89311 176.650105 
L 294.087492 83.277474 
L 295.281873 129.963789 
L 296.476254 142.696421 
L 297.670635 172.405895 
L 298.865017 104.498526 
L 300.059398 172.405895 
L 301.253779 172.405895 
L 302.448161 117.231158 
L 303.642542 159.673263 
L 304.836923 146.940632 
L 306.031304 155.429053 
L 307.225686 129.963789 
L 308.420067 96.010105 
L 309.614448 151.184842 
L 310.808829 151.184842 
L 312.003211 159.673263 
L 313.197592 138.452211 
L 314.391973 125.719579 
L 315.586355 117.231158 
L 316.780736 168.161684 
L 317.975117 112.986947 
L 319.169498 134.208 
L 320.36388 129.963789 
L 321.558261 129.963789 
L 322.752642 146.940632 
L 323.947023 53.568 
L 325.141405 159.673263 
L 326.335786 129.963789 
L 327.530167 163.917474 
L 328.724548 155.429053 
L 329.91893 117.231158 
L 331.113311 121.475368 
L 332.307692 112.986947 
L 333.502074 172.405895 
L 334.696455 121.475368 
L 335.890836 125.719579 
L 337.085217 159.673263 
L 338.279599 129.963789 
L 339.47398 146.940632 
L 340.668361 151.184842 
L 341.862742 112.986947 
L 343.057124 91.765895 
L 344.251505 142.696421 
L 345.445886 100.254316 
L 346.640268 151.184842 
L 349.02903 91.765895 
L 350.223411 83.277474 
L 351.417793 185.138526 
L 352.612174 146.940632 
L 353.806555 159.673263 
L 355.000936 185.138526 
L 356.195318 125.719579 
L 357.389699 176.650105 
L 358.58408 134.208 
L 359.778462 214.848 
L 360.972843 206.359579 
L 362.167224 202.115368 
L 363.361605 210.603789 
L 365.750368 185.138526 
L 368.13913 176.650105 
L 369.333512 202.115368 
L 370.527893 236.069053 
L 371.722274 236.069053 
L 372.916656 231.824842 
L 374.111037 185.138526 
L 375.305418 248.801684 
L 376.499799 202.115368 
L 377.694181 210.603789 
L 378.888562 223.336421 
L 380.082943 248.801684 
L 381.277324 214.848 
L 382.471706 231.824842 
L 383.666087 214.848 
L 384.860468 231.824842 
L 386.054849 197.871158 
L 387.249231 227.580632 
L 388.443612 244.557474 
L 389.637993 214.848 
L 390.832375 236.069053 
L 392.026756 240.313263 
L 393.221137 202.115368 
L 394.415518 214.848 
L 395.6099 236.069053 
L 396.804281 223.336421 
L 397.998662 223.336421 
L 399.193043 236.069053 
L 400.387425 257.290105 
L 401.581806 223.336421 
L 402.776187 236.069053 
L 403.970569 206.359579 
L 405.16495 248.801684 
L 406.359331 244.557474 
L 407.553712 248.801684 
L 408.748094 231.824842 
L 409.942475 261.534316 
L 411.136856 223.336421 
L 412.331237 253.045895 
L 413.525619 193.626947 
L 414.72 236.069053 
L 414.72 236.069053 
" style="fill:none;stroke:#1f77b4;stroke-linecap:square;stroke-width:1.5;"/>
   </g>
   <g id="line2d_15">
    <path clip-path="url(#p57399d319d)" d="M 58.794381 285.421838 
L 59.988763 281.129323 
L 61.183144 276.253312 
L 62.377525 267.933116 
L 63.571906 266.749347 
L 67.15505 258.566927 
L 68.349431 255.705638 
L 69.543813 253.350324 
L 70.738194 251.755224 
L 71.932575 251.799692 
L 73.126957 249.355037 
L 74.321338 245.796597 
L 75.515719 245.832197 
L 76.7101 244.353253 
L 77.904482 242.274479 
L 79.098863 240.987478 
L 80.293244 239.392051 
L 82.682007 235.799015 
L 83.876388 231.535391 
L 85.070769 227.71891 
L 86.265151 227.175363 
L 87.459532 224.84998 
L 88.653913 223.976212 
L 89.848294 223.362532 
L 91.042676 224.626062 
L 92.237057 223.604616 
L 93.431438 219.69268 
L 94.625819 218.837571 
L 95.820201 219.242604 
L 97.014582 217.160527 
L 98.208963 215.916089 
L 99.403344 214.38843 
L 100.597726 216.860542 
L 101.792107 213.625071 
L 102.986488 213.394352 
L 104.18087 212.745847 
L 105.375251 212.737474 
L 106.569632 209.694177 
L 107.764013 209.282468 
L 108.958395 207.820281 
L 110.152776 206.781856 
L 111.347157 203.163329 
L 112.541538 201.90196 
L 113.73592 202.94287 
L 114.930301 200.426473 
L 116.124682 198.170523 
L 117.319064 198.387605 
L 118.513445 200.710203 
L 119.707826 201.611276 
L 120.902207 199.722345 
L 122.096589 199.042709 
L 123.29097 200.339561 
L 124.485351 198.437337 
L 125.679732 197.741351 
L 126.874114 195.760721 
L 128.068495 194.962378 
L 129.262876 197.111635 
L 130.457258 197.554386 
L 131.651639 196.59064 
L 132.84602 195.078429 
L 134.040401 191.770837 
L 135.234783 192.447377 
L 136.429164 191.600908 
L 137.623545 190.468908 
L 138.817926 191.698796 
L 140.012308 192.011799 
L 141.206689 189.294002 
L 142.40107 186.92096 
L 143.595452 186.752068 
L 144.789833 181.925209 
L 145.984214 186.17545 
L 147.178595 186.721496 
L 148.372977 186.494103 
L 149.567358 185.93635 
L 150.761739 184.762393 
L 151.95612 186.313598 
L 153.150502 185.945382 
L 154.344883 184.297122 
L 155.539264 182.846158 
L 156.733645 182.514766 
L 157.928027 179.541046 
L 159.122408 178.552447 
L 161.511171 178.484714 
L 162.705552 178.982113 
L 163.899933 176.403989 
L 165.094314 178.057385 
L 166.288696 178.403194 
L 167.483077 178.330445 
L 168.677458 180.515979 
L 169.871839 179.091415 
L 171.066221 178.853063 
L 172.260602 180.572134 
L 173.454983 179.075743 
L 174.649365 180.075934 
L 175.843746 177.635355 
L 177.038127 174.224783 
L 178.232508 173.848544 
L 179.42689 176.026424 
L 180.621271 176.503196 
L 181.815652 175.253706 
L 183.010033 175.465877 
L 184.204415 173.317619 
L 185.398796 173.070876 
L 186.593177 172.461497 
L 187.787559 173.183961 
L 188.98194 173.417376 
L 190.176321 172.602999 
L 191.370702 170.244015 
L 192.565084 169.155826 
L 193.759465 168.794581 
L 194.953846 170.687252 
L 196.148227 169.957455 
L 197.342609 171.267102 
L 198.53699 170.394147 
L 199.731371 170.28706 
L 200.925753 168.205589 
L 202.120134 166.71575 
L 203.314515 165.045622 
L 204.508896 164.513866 
L 205.703278 164.293735 
L 206.897659 163.700187 
L 209.286421 163.777355 
L 210.480803 161.767529 
L 211.675184 162.934029 
L 212.869565 160.594966 
L 214.063946 162.138086 
L 215.258328 162.077156 
L 216.452709 159.055497 
L 217.64709 157.408431 
L 218.841472 155.255803 
L 220.035853 155.923001 
L 221.230234 154.751233 
L 222.424615 157.587514 
L 223.618997 157.327538 
L 224.813378 158.394587 
L 226.007759 154.38885 
L 227.20214 154.532587 
L 228.396522 154.893034 
L 229.590903 154.812638 
L 230.785284 154.372425 
L 231.979666 156.236887 
L 233.174047 154.528673 
L 234.368428 151.427741 
L 235.562809 153.94354 
L 236.757191 154.376903 
L 237.951572 157.00937 
L 239.145953 155.661364 
L 240.340334 156.816676 
L 241.534716 154.204594 
L 242.729097 153.601635 
L 243.923478 152.056299 
L 245.11786 153.945086 
L 246.312241 152.889419 
L 247.506622 154.578396 
L 248.701003 154.358122 
L 249.895385 154.494771 
L 251.089766 156.557401 
L 252.284147 157.010442 
L 253.478528 155.140503 
L 254.67291 155.18698 
L 255.867291 155.853793 
L 257.061672 155.75482 
L 258.256054 154.035116 
L 259.450435 155.161304 
L 260.644816 153.476472 
L 261.839197 153.652769 
L 263.033579 155.392706 
L 264.22796 153.267937 
L 265.422341 153.410653 
L 266.616722 152.514896 
L 267.811104 153.676796 
L 269.005485 151.045702 
L 270.199866 150.084508 
L 271.394247 148.873629 
L 272.588629 149.078271 
L 273.78301 147.880165 
L 274.977391 148.435325 
L 276.171773 147.544884 
L 277.366154 148.700459 
L 278.560535 149.641881 
L 279.754916 147.820541 
L 280.949298 147.559971 
L 282.143679 147.620029 
L 283.33806 148.285713 
L 284.532441 147.52146 
L 285.726823 149.135166 
L 286.921204 146.900876 
L 288.115585 145.967547 
L 289.309967 145.44899 
L 290.504348 146.584753 
L 291.698729 145.879578 
L 292.89311 146.236204 
L 295.281873 144.908244 
L 296.476254 147.929334 
L 297.670635 148.524967 
L 298.865017 148.08177 
L 300.059398 150.005532 
L 301.253779 145.132184 
L 302.448161 143.921421 
L 303.642542 144.116909 
L 304.836923 144.867354 
L 306.031304 145.138403 
L 307.225686 146.326652 
L 308.420067 144.719495 
L 309.614448 144.97724 
L 310.808829 145.492941 
L 313.197592 144.451364 
L 315.586355 142.401783 
L 316.780736 141.536518 
L 317.975117 140.418959 
L 319.169498 140.712039 
L 320.36388 139.597255 
L 321.558261 141.209597 
L 322.752642 142.211366 
L 323.947023 140.773722 
L 325.141405 141.826113 
L 326.335786 141.392295 
L 327.530167 138.730559 
L 328.724548 137.082589 
L 329.91893 140.497451 
L 331.113311 140.739523 
L 332.307692 141.279496 
L 333.502074 140.764245 
L 334.696455 138.695653 
L 335.890836 138.215095 
L 338.279599 138.525825 
L 339.47398 140.228678 
L 340.668361 141.012974 
L 341.862742 138.759683 
L 343.057124 139.452096 
L 344.251505 141.315326 
L 345.445886 140.94286 
L 346.640268 139.013676 
L 347.834649 138.014442 
L 349.02903 144.624301 
L 350.223411 150.249217 
L 351.417793 155.162276 
L 352.612174 159.531666 
L 355.000936 167.05592 
L 357.389699 173.392706 
L 359.778462 178.866379 
L 362.167224 183.681279 
L 364.555987 187.975396 
L 366.944749 191.846726 
L 369.333512 195.36759 
L 371.722274 198.592998 
L 375.305418 202.968482 
L 378.888562 206.883784 
L 382.471706 210.419851 
L 386.054849 213.637997 
L 389.637993 216.585818 
L 393.221137 219.301026 
L 397.998662 222.611179 
L 402.776187 225.618564 
L 407.553712 228.368019 
L 412.331237 230.895263 
L 414.72 232.084811 
L 414.72 232.084811 
" style="fill:none;stroke:#ff7f0e;stroke-linecap:square;stroke-width:1.5;"/>
   </g>
   <g id="line2d_16">
    <path clip-path="url(#p57399d319d)" d="M 347.834649 307.584 
L 347.834649 41.472 
" style="fill:none;stroke:#ff0000;stroke-dasharray:5.55,2.4;stroke-dashoffset:0;stroke-width:1.5;"/>
   </g>
   <g id="patch_3">
    <path d="M 57.6 307.584 
L 57.6 41.472 
" style="fill:none;stroke:#000000;stroke-linecap:square;stroke-linejoin:miter;stroke-width:0.8;"/>
   </g>
   <g id="patch_4">
    <path d="M 414.72 307.584 
L 414.72 41.472 
" style="fill:none;stroke:#000000;stroke-linecap:square;stroke-linejoin:miter;stroke-width:0.8;"/>
   </g>
   <g id="patch_5">
    <path d="M 57.6 307.584 
L 414.72 307.584 
" style="fill:none;stroke:#000000;stroke-linecap:square;stroke-linejoin:miter;stroke-width:0.8;"/>
   </g>
   <g id="patch_6">
    <path d="M 57.6 41.472 
L 414.72 41.472 
" style="fill:none;stroke:#000000;stroke-linecap:square;stroke-linejoin:miter;stroke-width:0.8;"/>
   </g>
   <g id="text_16">
    <!-- Tracking Daily Transactions -->
    <defs>
     <path d="M 9.078125 75.984375 
L 18.109375 75.984375 
L 18.109375 31.109375 
L 44.921875 54.6875 
L 56.390625 54.6875 
L 27.390625 29.109375 
L 57.625 0 
L 45.90625 0 
L 18.109375 26.703125 
L 18.109375 0 
L 9.078125 0 
z
" id="DejaVuSans-6b"/>
     <path d="M 45.40625 27.984375 
Q 45.40625 37.75 41.375 43.109375 
Q 37.359375 48.484375 30.078125 48.484375 
Q 22.859375 48.484375 18.828125 43.109375 
Q 14.796875 37.75 14.796875 27.984375 
Q 14.796875 18.265625 18.828125 12.890625 
Q 22.859375 7.515625 30.078125 7.515625 
Q 37.359375 7.515625 41.375 12.890625 
Q 45.40625 18.265625 45.40625 27.984375 
z
M 54.390625 6.78125 
Q 54.390625 -7.171875 48.1875 -13.984375 
Q 42 -20.796875 29.203125 -20.796875 
Q 24.46875 -20.796875 20.265625 -20.09375 
Q 16.0625 -19.390625 12.109375 -17.921875 
L 12.109375 -9.1875 
Q 16.0625 -11.328125 19.921875 -12.34375 
Q 23.78125 -13.375 27.78125 -13.375 
Q 36.625 -13.375 41.015625 -8.765625 
Q 45.40625 -4.15625 45.40625 5.171875 
L 45.40625 9.625 
Q 42.625 4.78125 38.28125 2.390625 
Q 33.9375 0 27.875 0 
Q 17.828125 0 11.671875 7.65625 
Q 5.515625 15.328125 5.515625 27.984375 
Q 5.515625 40.671875 11.671875 48.328125 
Q 17.828125 56 27.875 56 
Q 33.9375 56 38.28125 53.609375 
Q 42.625 51.21875 45.40625 46.390625 
L 45.40625 54.6875 
L 54.390625 54.6875 
z
" id="DejaVuSans-67"/>
     <path id="DejaVuSans-20"/>
     <path d="M 19.671875 64.796875 
L 19.671875 8.109375 
L 31.59375 8.109375 
Q 46.6875 8.109375 53.6875 14.9375 
Q 60.6875 21.78125 60.6875 36.53125 
Q 60.6875 51.171875 53.6875 57.984375 
Q 46.6875 64.796875 31.59375 64.796875 
z
M 9.8125 72.90625 
L 30.078125 72.90625 
Q 51.265625 72.90625 61.171875 64.09375 
Q 71.09375 55.28125 71.09375 36.53125 
Q 71.09375 17.671875 61.125 8.828125 
Q 51.171875 0 30.078125 0 
L 9.8125 0 
z
" id="DejaVuSans-44"/>
     <path d="M 9.421875 75.984375 
L 18.40625 75.984375 
L 18.40625 0 
L 9.421875 0 
z
" id="DejaVuSans-6c"/>
    </defs>
    <g transform="translate(153 35.472)scale(0.12 -0.12)">
     <use xlink:href="#DejaVuSans-54"/>
     <use x="60.865234" xlink:href="#DejaVuSans-72"/>
     <use x="101.978516" xlink:href="#DejaVuSans-61"/>
     <use x="163.257812" xlink:href="#DejaVuSans-63"/>
     <use x="218.238281" xlink:href="#DejaVuSans-6b"/>
     <use x="276.148438" xlink:href="#DejaVuSans-69"/>
     <use x="303.931641" xlink:href="#DejaVuSans-6e"/>
     <use x="367.310547" xlink:href="#DejaVuSans-67"/>
     <use x="430.787109" xlink:href="#DejaVuSans-20"/>
     <use x="462.574219" xlink:href="#DejaVuSans-44"/>
     <use x="539.576172" xlink:href="#DejaVuSans-61"/>
     <use x="600.855469" xlink:href="#DejaVuSans-69"/>
     <use x="628.638672" xlink:href="#DejaVuSans-6c"/>
     <use x="656.421875" xlink:href="#DejaVuSans-79"/>
     <use x="715.601562" xlink:href="#DejaVuSans-20"/>
     <use x="747.388672" xlink:href="#DejaVuSans-54"/>
     <use x="808.253906" xlink:href="#DejaVuSans-72"/>
     <use x="849.367188" xlink:href="#DejaVuSans-61"/>
     <use x="910.646484" xlink:href="#DejaVuSans-6e"/>
     <use x="974.025391" xlink:href="#DejaVuSans-73"/>
     <use x="1026.125" xlink:href="#DejaVuSans-61"/>
     <use x="1087.404297" xlink:href="#DejaVuSans-63"/>
     <use x="1142.384766" xlink:href="#DejaVuSans-74"/>
     <use x="1181.59375" xlink:href="#DejaVuSans-69"/>
     <use x="1209.376953" xlink:href="#DejaVuSans-6f"/>
     <use x="1270.558594" xlink:href="#DejaVuSans-6e"/>
     <use x="1333.9375" xlink:href="#DejaVuSans-73"/>
    </g>
   </g>
   <g id="legend_1">
    <g id="patch_7">
     <path d="M 64.6 78.82825 
L 144.25625 78.82825 
Q 146.25625 78.82825 146.25625 76.82825 
L 146.25625 48.472 
Q 146.25625 46.472 144.25625 46.472 
L 64.6 46.472 
Q 62.6 46.472 62.6 48.472 
L 62.6 76.82825 
Q 62.6 78.82825 64.6 78.82825 
z
" style="fill:#ffffff;opacity:0.8;stroke:#cccccc;stroke-linejoin:miter;"/>
    </g>
    <g id="line2d_17">
     <path d="M 66.6 54.570437 
L 86.6 54.570437 
" style="fill:none;stroke:#1f77b4;stroke-linecap:square;stroke-width:1.5;"/>
    </g>
    <g id="line2d_18"/>
    <g id="text_17">
     <!-- actual -->
     <defs>
      <path d="M 8.5 21.578125 
L 8.5 54.6875 
L 17.484375 54.6875 
L 17.484375 21.921875 
Q 17.484375 14.15625 20.5 10.265625 
Q 23.53125 6.390625 29.59375 6.390625 
Q 36.859375 6.390625 41.078125 11.03125 
Q 45.3125 15.671875 45.3125 23.6875 
L 45.3125 54.6875 
L 54.296875 54.6875 
L 54.296875 0 
L 45.3125 0 
L 45.3125 8.40625 
Q 42.046875 3.421875 37.71875 1 
Q 33.40625 -1.421875 27.6875 -1.421875 
Q 18.265625 -1.421875 13.375 4.4375 
Q 8.5 10.296875 8.5 21.578125 
z
M 31.109375 56 
z
" id="DejaVuSans-75"/>
     </defs>
     <g transform="translate(94.6 58.070437)scale(0.1 -0.1)">
      <use xlink:href="#DejaVuSans-61"/>
      <use x="61.279297" xlink:href="#DejaVuSans-63"/>
      <use x="116.259766" xlink:href="#DejaVuSans-74"/>
      <use x="155.46875" xlink:href="#DejaVuSans-75"/>
      <use x="218.847656" xlink:href="#DejaVuSans-61"/>
      <use x="280.126953" xlink:href="#DejaVuSans-6c"/>
     </g>
    </g>
    <g id="line2d_19">
     <path d="M 66.6 69.248562 
L 86.6 69.248562 
" style="fill:none;stroke:#ff7f0e;stroke-linecap:square;stroke-width:1.5;"/>
    </g>
    <g id="line2d_20"/>
    <g id="text_18">
     <!-- predicted -->
     <defs>
      <path d="M 18.109375 8.203125 
L 18.109375 -20.796875 
L 9.078125 -20.796875 
L 9.078125 54.6875 
L 18.109375 54.6875 
L 18.109375 46.390625 
Q 20.953125 51.265625 25.265625 53.625 
Q 29.59375 56 35.59375 56 
Q 45.5625 56 51.78125 48.09375 
Q 58.015625 40.1875 58.015625 27.296875 
Q 58.015625 14.40625 51.78125 6.484375 
Q 45.5625 -1.421875 35.59375 -1.421875 
Q 29.59375 -1.421875 25.265625 0.953125 
Q 20.953125 3.328125 18.109375 8.203125 
z
M 48.6875 27.296875 
Q 48.6875 37.203125 44.609375 42.84375 
Q 40.53125 48.484375 33.40625 48.484375 
Q 26.265625 48.484375 22.1875 42.84375 
Q 18.109375 37.203125 18.109375 27.296875 
Q 18.109375 17.390625 22.1875 11.75 
Q 26.265625 6.109375 33.40625 6.109375 
Q 40.53125 6.109375 44.609375 11.75 
Q 48.6875 17.390625 48.6875 27.296875 
z
" id="DejaVuSans-70"/>
      <path d="M 56.203125 29.59375 
L 56.203125 25.203125 
L 14.890625 25.203125 
Q 15.484375 15.921875 20.484375 11.0625 
Q 25.484375 6.203125 34.421875 6.203125 
Q 39.59375 6.203125 44.453125 7.46875 
Q 49.3125 8.734375 54.109375 11.28125 
L 54.109375 2.78125 
Q 49.265625 0.734375 44.1875 -0.34375 
Q 39.109375 -1.421875 33.890625 -1.421875 
Q 20.796875 -1.421875 13.15625 6.1875 
Q 5.515625 13.8125 5.515625 26.8125 
Q 5.515625 40.234375 12.765625 48.109375 
Q 20.015625 56 32.328125 56 
Q 43.359375 56 49.78125 48.890625 
Q 56.203125 41.796875 56.203125 29.59375 
z
M 47.21875 32.234375 
Q 47.125 39.59375 43.09375 43.984375 
Q 39.0625 48.390625 32.421875 48.390625 
Q 24.90625 48.390625 20.390625 44.140625 
Q 15.875 39.890625 15.1875 32.171875 
z
" id="DejaVuSans-65"/>
     </defs>
     <g transform="translate(94.6 72.748562)scale(0.1 -0.1)">
      <use xlink:href="#DejaVuSans-70"/>
      <use x="63.476562" xlink:href="#DejaVuSans-72"/>
      <use x="104.558594" xlink:href="#DejaVuSans-65"/>
      <use x="166.082031" xlink:href="#DejaVuSans-64"/>
      <use x="229.558594" xlink:href="#DejaVuSans-69"/>
      <use x="257.341797" xlink:href="#DejaVuSans-63"/>
      <use x="312.322266" xlink:href="#DejaVuSans-74"/>
      <use x="351.53125" xlink:href="#DejaVuSans-65"/>
      <use x="413.054688" xlink:href="#DejaVuSans-64"/>
     </g>
    </g>
   </g>
  </g>
 </g>
 <defs>
  <clipPath id="p57399d319d">
   <rect height="266.112" width="357.12" x="57.6" y="41.472"/>
  </clipPath>
 </defs>
</svg>
